<svg width="21" height="26" fill="none" xmlns="http://www.w3.org/2000/svg"><path fill-rule="evenodd" clip-rule="evenodd" d="M17.082 14.12c-.032-3.18 2.597-4.714 2.716-4.786-1.476-2.166-3.774-2.462-4.594-2.496-1.956-.195-3.819 1.154-4.811 1.154-.99 0-2.525-1.123-4.145-1.091-2.136.03-4.098 1.238-5.197 3.15-2.214 3.852-.566 9.552 1.592 12.675 1.055 1.525 2.314 3.245 3.966 3.182 1.592-.063 2.192-1.029 4.114-1.029 1.925 0 2.465 1.029 4.148.997 1.712-.031 2.798-1.556 3.847-3.088 1.209-1.773 1.708-3.49 1.736-3.58-.037-.013-3.338-1.28-3.372-5.088" fill="#fff"/><path fill-rule="evenodd" clip-rule="evenodd" d="M14.979 0c-1.017.06-2.245.993-2.974 2.237-.654 1.107-1.226 2.875-1.07 4.57 1.133.129 2.288-.842 2.994-2.09A8.63 8.63 0 0 0 14.979 0" fill="#fff"/></svg>