<svg width="61" height="29" fill="none" xmlns="http://www.w3.org/2000/svg"><path fill-rule="evenodd" clip-rule="evenodd" d="M29.49 16.961h-3.203v-6.814h3.203c2.224 0 3.49 1.264 3.49 3.421 0 2.154-1.293 3.396-3.49 3.396v-.003zm.674-9.052h-6.437v17.137h2.56v-5.847h3.799c3.23 0 5.505-2.316 5.505-5.659s-2.254-5.63-5.428-5.63zm14.832 11.352c0 1.532-1.402 2.622-3.212 2.642-1.426 0-2.36-.627-2.36-1.624 0-1.043.883-1.625 2.567-1.723l3.005-.191v.896zm-2.512-7.397c-2.777 0-4.848 1.5-4.926 3.566h2.308c.204-.995 1.192-1.652 2.54-1.652 1.633 0 2.59.73 2.59 2.063v.9l-3.344.168c-3.056.194-4.743 1.357-4.743 3.395 0 2.063 1.711 3.448 4.227 3.423 1.68 0 3.239-.8 3.911-2.066h.054v1.945h2.354v-7.962c0-2.28-1.94-3.78-4.971-3.78zm12.288 10.254h-.055l-3.233-10.254h-2.711l4.579 12.594-.183.65c-.423 1.34-1.109 1.838-2.291 1.838-.213 0-.606 0-.79-.052v2.045c.214.027.814.08 1 .055 2.578 0 3.76-.976 4.841-3.99l4.707-13.14h-2.629l-3.235 10.254zm-38.26-8.469c-.03-3.073 2.51-4.556 2.626-4.626-1.427-2.094-3.649-2.38-4.44-2.414-1.892-.188-3.692 1.116-4.651 1.116-.957 0-2.441-1.085-4.007-1.055-2.065.03-3.962 1.198-5.024 3.046-2.14 3.723-.547 9.234 1.539 12.252 1.02 1.474 2.237 3.137 3.834 3.076 1.539-.061 2.119-.994 3.976-.994 1.861 0 2.383.994 4.01.963 1.655-.03 2.705-1.504 3.719-2.984 1.169-1.715 1.651-3.374 1.679-3.462-.037-.012-3.227-1.237-3.26-4.918z" fill="#fff"/><path fill-rule="evenodd" clip-rule="evenodd" d="M14.48 0c-.983.057-2.17.96-2.876 2.162-.631 1.07-1.185 2.78-1.033 4.418 1.095.125 2.211-.814 2.894-2.02A8.344 8.344 0 0 0 14.48 0z" fill="#fff"/></svg>