<svg width="20" height="25" fill="none" xmlns="http://www.w3.org/2000/svg"><path fill-rule="evenodd" clip-rule="evenodd" d="M16.242 13.425c-.03-3.022 2.47-4.481 2.582-4.55-1.403-2.06-3.589-2.34-4.368-2.374-1.86-.185-3.63 1.097-4.574 1.097-.94 0-2.4-1.067-3.941-1.037-2.03.03-3.897 1.178-4.942 2.996-2.105 3.662-.537 9.082 1.514 12.05 1.003 1.45 2.2 3.086 3.77 3.026 1.515-.06 2.085-.977 3.912-.977 1.83 0 2.344.977 3.945.947 1.627-.03 2.66-1.48 3.657-2.935 1.15-1.686 1.625-3.319 1.652-3.406-.036-.012-3.174-1.216-3.207-4.837z" fill="#EBEBEB"/><path fill-rule="evenodd" clip-rule="evenodd" d="M14.242 0c-.966.056-2.135.944-2.828 2.127-.62 1.053-1.165 2.734-1.017 4.345 1.077.123 2.176-.8 2.847-1.987A8.208 8.208 0 0 0 14.242 0z" fill="#EBEBEB"/></svg>