<svg width="83" height="85" fill="none" xmlns="http://www.w3.org/2000/svg"><path fill-rule="evenodd" clip-rule="evenodd" d="M48.46 27.333v-4c0-4.043-3.328-7.333-7.42-7.333-4.091 0-7.42 3.29-7.42 7.333v4h-8.095v31.334h31.03V27.333h-8.094zm-13.49-4c0-3.308 2.723-6 6.07-6 3.348 0 6.071 2.692 6.071 6v4H34.97v-4zm-8.096 5.334v28.666h28.332V28.667h-6.745V32h-1.35v-3.333H34.97V32h-1.35v-3.333h-6.746z" fill="#6496DC"/><path clip-rule="evenodd" d="M41 81c22.091 0 40-17.909 40-40S63.091 1 41 1 1 18.909 1 41s17.909 40 40 40z" stroke="#6496DC"/></svg>