<svg width="341" height="120" fill="none" xmlns="http://www.w3.org/2000/svg"><path d="M95.633 79.827h-.578c-11.012 0-19.97-8.895-19.97-19.827V19.826c0-9.428-7.726-17.099-17.223-17.099-9.498 0-17.224 7.67-17.224 17.099v80.347c0 10.933-8.957 19.827-19.97 19.827h-.7C8.959 120 0 111.106 0 100.173V18.579a1.37 1.37 0 0 1 1.373-1.363c.759 0 1.374.61 1.374 1.363v81.594c0 9.429 7.726 17.1 17.223 17.1h.7c9.497 0 17.223-7.671 17.223-17.1V19.826C37.893 8.894 46.85 0 57.863 0c11.012 0 19.97 8.894 19.97 19.826V60c0 9.429 7.726 17.1 17.223 17.1h.578l-.001 2.727z" fill="#363663"/><path fill-rule="evenodd" clip-rule="evenodd" d="M305.086 120h.578c11.012 0 19.97-8.894 19.97-19.827V56.386c6.332-.013 11.479-5.13 11.479-11.42v-11.42h1.545c.758 0 1.373-.611 1.373-1.364 0-.753-.615-1.364-1.373-1.364h-5.122V20.426c0-1.77-1.45-3.21-3.233-3.21-1.783 0-3.233 1.44-3.233 3.21v10.392h-5.666V20.426c0-1.77-1.451-3.21-3.233-3.21-1.783 0-3.234 1.44-3.234 3.21v10.392h-5.121a1.37 1.37 0 0 0-1.374 1.364 1.37 1.37 0 0 0 1.374 1.363h1.545v11.42c0 6.298 5.16 11.421 11.503 11.421h.025v43.787c0 9.429-7.726 17.1-17.223 17.1h-.579c-9.497 0-17.223-7.671-17.223-17.1V19.826C287.864 8.894 278.906 0 267.894 0c-11.012 0-19.97 8.894-19.97 19.826V60c0 9.429-7.726 17.1-17.223 17.1h-.7L230 79.826h.7c11.012 0 19.97-8.895 19.97-19.827V19.826c0-9.428 7.726-17.099 17.223-17.099s17.223 7.67 17.223 17.099v80.347c0 10.933 8.959 19.827 19.97 19.827zm9.02-75.034v-11.42h20.26v11.42c0 4.793-3.929 8.693-8.756 8.693h-2.747c-4.828 0-8.757-3.9-8.757-8.693zm16.683-14.148V20.426a.485.485 0 0 0-.486-.483.485.485 0 0 0-.486.483v10.392h.972zm-12.132 0h-.973V20.426c0-.267.218-.483.487-.483.268 0 .486.216.486.483v10.392z" fill="#363663"/><path d="M121.829 65.536c-3.744 0-6.792 2.904-6.792 6.864 0 3.936 3 6.864 6.792 6.864 3.816 0 6.816-2.904 6.816-6.864s-3.048-6.864-6.816-6.864zm0 1.896c2.664 0 4.8 2.064 4.8 4.968s-2.112 4.968-4.8 4.968c-2.664 0-4.776-2.064-4.776-4.968 0-2.928 2.136-4.968 4.776-4.968zm21.078-1.896c-3.744 0-6.792 2.904-6.792 6.864 0 3.936 3 6.864 6.792 6.864 3.816 0 6.816-2.904 6.816-6.864s-3.048-6.864-6.816-6.864zm0 1.896c2.664 0 4.8 2.064 4.8 4.968s-2.112 4.968-4.8 4.968c-2.664 0-4.776-2.064-4.776-4.968 0-2.928 2.136-4.968 4.776-4.968zm21.078-1.896c-3.744 0-6.792 2.904-6.792 6.864 0 3.936 3 6.864 6.792 6.864 3.816 0 6.816-2.904 6.816-6.864s-3.048-6.864-6.816-6.864zm0 1.896c2.664 0 4.8 2.064 4.8 4.968s-2.112 4.968-4.8 4.968c-2.664 0-4.776-2.064-4.776-4.968 0-2.928 2.136-4.968 4.776-4.968zm22.014-1.896c-2.28 0-4.08 1.176-5.088 2.976V65.8h-1.992V85h1.992v-8.664c1.008 1.776 2.784 2.928 5.064 2.928 3.6 0 6.192-2.88 6.192-6.864 0-4.008-2.592-6.864-6.168-6.864zm-.384 11.832c-2.688 0-4.728-2.064-4.728-4.968s2.04-4.968 4.728-4.968c2.664 0 4.536 2.088 4.536 4.968 0 2.904-1.872 4.968-4.536 4.968zm20.159 1.896c2.976 0 5.448-1.32 5.448-4.032 0-2.472-2.04-3-5.424-3.84-2.664-.672-3.72-.96-3.72-2.016 0-1.128 1.248-1.944 3.384-1.944 1.776 0 3.048.552 3.552 1.896h2.016c-.528-2.376-2.52-3.792-5.616-3.792-3.12 0-5.352 1.44-5.352 3.984 0 2.16 1.584 2.808 5.232 3.72 2.424.6 3.888.864 3.888 2.16 0 1.272-1.44 1.968-3.408 1.968-2.448 0-3.816-.648-4.344-2.496h-2.04c.528 2.784 2.928 4.392 6.384 4.392z" fill="#363663"/></svg>