<svg width="24" height="25" fill="none" xmlns="http://www.w3.org/2000/svg"><path d="M23.108 12.43c0-.803-.064-1.605-.194-2.392H11.95v4.537h6.282a5.467 5.467 0 0 1-2.325 3.587v2.949h3.746c2.196-2.048 3.455-5.078 3.455-8.681z" fill="#fff"/><path d="M11.95 23.96c3.133 0 5.781-1.048 7.703-2.85l-3.746-2.948c-1.05.72-2.39 1.13-3.957 1.13-3.035 0-5.603-2.08-6.523-4.864h-3.86v3.046c1.97 3.98 5.991 6.486 10.383 6.486z" fill="#fff"/><path d="M5.427 14.428a7.213 7.213 0 0 1 0-4.52V6.876h-3.86a11.843 11.843 0 0 0 0 10.58l3.86-3.03z" fill="#fff"/><path d="M11.95 5.043a6.209 6.209 0 0 1 4.457 1.769l3.326-3.375A11.134 11.134 0 0 0 11.95.374c-4.392 0-8.412 2.523-10.382 6.503l3.859 3.047c.92-2.801 3.488-4.881 6.523-4.881z" fill="#fff"/></svg>