<svg width="92" height="28" fill="none" xmlns="http://www.w3.org/2000/svg"><path d="M88.371 27.287H3.4c-1.903 0-3.399-1.57-3.399-3.41V3.41A3.412 3.412 0 0 1 3.399 0H88.37c1.904 0 3.399 1.569 3.399 3.41v20.466c0 1.842-1.495 3.41-3.399 3.41z" fill="#000"/><path fill-rule="evenodd" clip-rule="evenodd" d="M3.399 0H88.37c1.904 0 3.399 1.569 3.399 3.41v20.466c0 1.842-1.495 3.41-3.399 3.41H3.4A3.415 3.415 0 0 1 0 23.877V3.411C0 1.569 1.496 0 3.399 0zm87.827 3.41c0-1.568-1.291-2.864-2.855-2.864H3.4C1.835.546.544 1.842.544 3.41v20.465c0 1.569 1.291 2.865 2.855 2.865H88.37c1.564 0 2.855-1.296 2.855-2.865V3.411z" fill="#A6A6A6"/><path fill-rule="evenodd" clip-rule="evenodd" d="M32.425 15.758v1.228h2.923c-.068.682-.34 1.227-.68 1.569-.408.409-1.087.887-2.243.887-1.835 0-3.195-1.433-3.195-3.275 0-1.842 1.428-3.274 3.195-3.274.952 0 1.7.409 2.243.886l.884-.886c-.748-.683-1.7-1.228-3.059-1.228-2.447 0-4.555 2.046-4.555 4.502s2.108 4.502 4.555 4.502c1.36 0 2.311-.409 3.127-1.296.816-.818 1.088-1.978 1.088-2.865 0-.273 0-.546-.068-.75h-4.215zm7.546-.887c-1.632 0-2.923 1.228-2.923 2.933a2.907 2.907 0 0 0 2.923 2.934c1.631 0 2.923-1.228 2.923-2.934 0-1.773-1.292-2.933-2.923-2.933zm3.398 2.933c0-1.705 1.292-2.933 2.923-2.933 1.632 0 2.923 1.16 2.923 2.933 0 1.706-1.291 2.934-2.923 2.934a2.907 2.907 0 0 1-2.923-2.934zm1.292-.068c0 1.023.748 1.774 1.631 1.774.884 0 1.632-.75 1.632-1.774 0-1.091-.748-1.774-1.632-1.774-.883 0-1.631.75-1.631 1.774zm-6.322 0c0 1.023.748 1.774 1.632 1.774.883 0 1.631-.75 1.631-1.774 0-1.091-.748-1.774-1.631-1.774-.884 0-1.632.75-1.632 1.774zm22.5-2.865c1.496 0 2.176 1.16 2.448 1.842l.136.34-3.875 1.638c.34.614.748.887 1.428.887.68 0 1.087-.341 1.427-.819l.952.683c-.272.477-1.088 1.296-2.38 1.296-1.63 0-2.854-1.296-2.854-2.934 0-1.773 1.223-2.933 2.719-2.933zm-1.495 2.797c0-1.092.884-1.706 1.496-1.706.475 0 .951.273 1.087.614l-2.583 1.092zm-1.903 2.797h-1.292v-8.527h1.292v8.527zm-3.331-4.98c-.34-.341-.884-.682-1.564-.682-1.427 0-2.787 1.296-2.787 2.933 0 1.637 1.292 2.865 2.787 2.865.68 0 1.224-.341 1.496-.682h.068v.41c0 1.09-.612 1.705-1.564 1.705-.747 0-1.291-.546-1.427-1.024l-1.088.478c.34.75 1.156 1.705 2.583 1.705 1.496 0 2.72-.886 2.72-3.001v-5.185H54.11v.478zm-3.127 2.251c0 1.023.748 1.774 1.631 1.774.884 0 1.564-.75 1.564-1.774 0-1.023-.68-1.774-1.564-1.774-.883 0-1.631.75-1.631 1.774zM69.2 11.937h-3.06v8.528h1.292v-3.206H69.2c1.427 0 2.787-1.024 2.787-2.66 0-1.638-1.36-2.662-2.787-2.662zm-1.767 4.094h1.835c.884 0 1.427-.75 1.495-1.501 0-.614-.543-1.433-1.495-1.433h-1.836v2.934zm9.652-1.228c-.951 0-1.903.409-2.243 1.296l1.156.477c.271-.477.68-.614 1.155-.614.68 0 1.292.41 1.36 1.092v.068c-.204-.136-.748-.341-1.292-.341-1.223 0-2.447.682-2.447 1.91 0 1.16 1.02 1.91 2.108 1.91.883 0 1.29-.41 1.63-.819h.069v.683h1.224V17.19c-.136-1.5-1.292-2.387-2.72-2.387zm-1.155 3.956c0 .546.612.75 1.02.75.679 0 1.36-.545 1.495-1.364l-.102-.041c-.296-.121-.565-.232-1.053-.232-.613 0-1.36.205-1.36.887zm8.157-3.752l-1.427 3.684h-.068l-1.496-3.684h-1.36l2.244 5.185-1.292 2.865h1.292l3.467-8.05h-1.36zm-10.129 5.458h-1.291v-8.527h1.291v8.527z" fill="#fff"/><path d="M7.07 5.115c-.205.205-.34.546-.34.956v15.076c0 .409.135.75.34.955l.067.068 8.43-8.46v-.136L7.069 5.117z" fill="url(#paint0_linear)"/><path d="M18.354 16.576l-2.787-2.797v-.204l2.787-2.797.068.068 3.33 1.91c.952.546.952 1.433 0 1.979l-3.398 1.841z" fill="url(#paint1_linear)"/><path d="M18.422 16.509l-2.855-2.865L7.07 22.17c.34.341.815.341 1.427.068l9.925-5.73z" fill="url(#paint2_linear)"/><path d="M18.422 10.779L8.497 5.117c-.612-.342-1.087-.273-1.427.068l8.497 8.459 2.855-2.865z" fill="url(#paint3_linear)"/><path opacity=".2" d="M18.354 16.44l-9.857 5.594c-.544.341-1.02.273-1.36 0l-.067.068.068.069c.34.272.815.34 1.36 0l9.856-5.73z" fill="#000"/><path opacity=".12" d="M7.07 22.033c-.205-.204-.273-.545-.273-.955v.069c0 .409.136.75.34.955v-.069H7.07zm14.682-7.503l-3.399 1.91.068.069 3.331-1.91c.476-.273.68-.614.68-.955 0 .34-.272.614-.68.887z" fill="#000"/><path opacity=".25" d="M8.498 5.184l13.256 7.572c.408.273.68.546.68.887 0-.34-.204-.682-.68-.955L8.498 5.116c-.952-.546-1.7-.068-1.7 1.023v.069c0-1.092.748-1.57 1.7-1.024z" fill="#fff"/><path fill-rule="evenodd" clip-rule="evenodd" d="M28.143 9.754h.544v-.887h3.127v.887h.476V8.39h-.476V4.774h-2.72v2.047c0 .75-.203 1.296-.543 1.569h-.408v1.364zm1.02-1.364c.272-.41.408-.955.408-1.57h-.068v-1.5h1.7v3.07h-2.04z" fill="#fff"/><path d="M28.143 9.754h-.1v.1h.1v-.1zm.544 0v.1h.1v-.1h-.1zm0-.887v-.1h-.1v.1h.1zm3.127 0h.1v-.1h-.1v.1zm0 .887h-.1v.1h.1v-.1zm.476 0v.1h.1v-.1h-.1zm0-1.364h.1v-.1h-.1v.1zm-.476 0h-.1v.1h.1v-.1zm0-3.616h.1v-.1h-.1v.1zm-2.72 0v-.1h-.1v.1h.1zm-.543 3.616v.1h.035l.028-.022-.063-.078zm-.408 0v-.1h-.1v.1h.1zm1.428-1.57h.1v-.1h-.1v.1zm-.408 1.57l-.083-.056-.104.156h.187v-.1zm.34-1.57h-.1v.1h.1v-.1zm0-1.5v-.1h-.1v.1h.1zm1.7 0h.1v-.1h-.1v.1zm0 3.07v.1h.1v-.1h-.1zm-2.584 1.264h-.476v.2h.476v-.2zm.068 0h-.068v.2h.068v-.2zm-.1-.787v.887h.2v-.887h-.2zm3.227-.1h-3.127v.2h3.127v-.2zm.1.987v-.887h-.2v.887h.2zm.376-.1h-.476v.2h.476v-.2zm-.1-1.264v1.364h.2V8.39h-.2zm-.376.1h.476v-.2h-.476v.2zm-.1-3.716V8.39h.2V4.774h-.2zm-2.62.1h2.72v-.2h-2.72v.2zm.1 1.947V4.774h-.2v2.047h.2zm-.58 1.647c.374-.301.58-.884.58-1.647h-.2c0 .737-.2 1.246-.506 1.49l.126.157zm-.47.022h.407v-.2h-.408v.2zm.1 1.264V8.39h-.2v1.364h.2zM29.47 6.82c0 .6-.133 1.125-.391 1.513l.166.11c.286-.43.425-.996.425-1.623h-.2zm.032.1h.068v-.2h-.068v.2zm-.1-1.601v1.5h.2v-1.5h-.2zm1.8-.1h-1.7v.2h1.7v-.2zm.1 3.17V5.32h-.2v3.07h.2zm-2.14.1h2.04v-.2h-2.04v.2z" fill="#fff"/><path fill-rule="evenodd" clip-rule="evenodd" d="M34.804 8.936c.612 0 1.088-.205 1.496-.614.408-.41.612-.887.612-1.501 0-.614-.204-1.092-.612-1.501-.408-.41-.884-.614-1.495-.614-.612 0-1.088.205-1.496.614-.408.41-.612.887-.612 1.5 0 .615.204 1.092.612 1.502.408.409.884.614 1.495.614zm0-.478c-.407 0-.815-.205-1.087-.477-.34-.273-.476-.683-.476-1.16 0-.478.204-.887.476-1.16.272-.341.68-.477 1.087-.477.408 0 .816.204 1.088.477.34.273.476.682.476 1.16 0 .477-.204.887-.476 1.16-.272.34-.68.477-1.088.477z" fill="#fff"/><path d="M36.3 8.322l-.07-.071.07.07zm0-3.002l-.07.07.07-.07zm-2.99 0l.07.07-.07-.07zm0 3.002l.07-.071-.07.07zm.407-.341l.071-.071-.008-.007-.063.078zm0-2.32l.071.071.007-.009-.078-.062zm2.175 0l-.071.071.009.007.062-.078zm0 2.32l-.071-.071-.007.008.078.063zm.337.27c-.389.39-.84.585-1.425.585v.2c.639 0 1.14-.216 1.567-.644l-.142-.141zm.583-1.43c0 .587-.194 1.04-.583 1.43l.142.141c.426-.428.64-.93.64-1.571h-.2zm-.583-1.43c.39.39.583.842.583 1.43h.2c0-.64-.215-1.143-.641-1.572l-.142.142zm-1.425-.585c.586 0 1.036.194 1.425.585l.142-.142c-.427-.428-.928-.643-1.567-.643v.2zm-1.424.585c.389-.39.84-.585 1.424-.585v-.2c-.638 0-1.14.215-1.566.643l.142.142zm-.583 1.43c0-.588.194-1.04.583-1.43l-.142-.142c-.426.429-.64.932-.64 1.572h.2zm.583 1.43c-.39-.39-.583-.843-.583-1.43h-.2c0 .64.215 1.143.641 1.571l.142-.141zm1.424.585c-.585 0-1.035-.194-1.424-.585l-.142.141c.427.428.928.644 1.566.644v-.2zm-1.158-.785c.287.288.72.507 1.158.507v-.2c-.376 0-.76-.19-1.016-.448l-.142.141zm-.505-1.23c0 .496.142.94.513 1.238l.125-.156c-.308-.248-.438-.623-.438-1.082h-.2zm.505-1.23a1.75 1.75 0 0 0-.505 1.23h.2c0-.449.192-.833.447-1.09l-.142-.14zm1.158-.507c-.428 0-.87.143-1.165.515l.156.124c.248-.31.623-.44 1.01-.44v-.2zm1.16.507c-.288-.289-.72-.507-1.16-.507v.2c.377 0 .76.19 1.017.448l.142-.141zm.504 1.23c0-.496-.142-.94-.513-1.238l-.125.156c.308.248.438.623.438 1.082h.2zm-.505 1.23a1.75 1.75 0 0 0 .505-1.23h-.2c0 .448-.192.833-.447 1.089l.142.141zm-1.159.507c.43 0 .87-.144 1.166-.515l-.156-.125c-.248.311-.623.44-1.01.44v.2z" fill="#fff"/><path d="M39.563 8.936c-.611 0-1.087-.205-1.495-.614-.408-.41-.612-.887-.612-1.501 0-.614.204-1.092.612-1.501.408-.41.884-.614 1.495-.614.612 0 1.088.205 1.496.682l-.34.341a1.45 1.45 0 0 0-1.156-.545c-.476 0-.815.136-1.155.477-.34.273-.476.682-.476 1.16 0 .477.136.887.476 1.16.271.272.68.477 1.155.477.476 0 .884-.205 1.224-.614l.34.341c-.204.205-.408.41-.68.546a1.876 1.876 0 0 1-.884.205zm3.738-.069h-.543V5.252h-1.156v-.478h2.787v.478h-1.156v3.615h.069zm4.691-4.093l-1.564 3.48c-.203.477-.543.75-.951.75-.136 0-.272 0-.408-.069l.136-.477c.068.068.204.068.272.068.136 0 .204 0 .272-.068a.927.927 0 0 0 .203-.273l.137-.341-1.36-3.002h.612l1.02 2.32.951-2.32h.68v-.068zm.612 4.093V4.774h2.923v4.093h-.544V5.252H49.08v3.615h-.476zm3.875 0V4.774h.544v1.774h2.04V4.774h.543v4.093h-.544V7.025h-2.04v1.842h-.543z" fill="#fff" stroke="#fff" stroke-width=".2"/><path fill-rule="evenodd" clip-rule="evenodd" d="M58.394 8.936c.611 0 1.087-.205 1.495-.614.34-.41.544-.887.612-1.501 0-.614-.204-1.092-.612-1.501-.408-.41-.884-.614-1.495-.614-.612 0-1.088.205-1.496.614-.408.41-.612.887-.612 1.5 0 .615.204 1.092.612 1.502.408.409.884.614 1.496.614zm-.068-.478c-.408 0-.816-.205-1.088-.477a1.65 1.65 0 0 1 0-2.32c.272-.341.68-.477 1.088-.477.408 0 .816.204 1.087.477.34.273.476.682.476 1.16 0 .477-.204.887-.476 1.16-.271.34-.68.477-1.087.477z" fill="#fff"/><path d="M59.89 8.322l.07.07.006-.007-.077-.063zm.61-1.502l.1.01v-.01h-.1zm-.612-1.501l.071-.07-.07.07zm-2.99 0l-.072-.07.071.07zm0 3.002l-.072.07.071-.07zm.339-.341l-.07.07.07-.07zm0-2.32l.071.071.007-.009-.078-.062zm2.175 0l-.07.071.008.007.062-.078zm0 2.32l-.07-.071-.008.008.078.063zm.405.27c-.389.39-.84.585-1.424.585v.2c.638 0 1.14-.216 1.566-.644l-.142-.141zm.584-1.441c-.066.596-.263 1.055-.59 1.448l.154.127c.353-.425.564-.921.634-1.553l-.198-.022zm-.584-1.42c.39.391.583.843.583 1.43h.2c0-.64-.214-1.142-.64-1.57l-.143.14zm-1.424-.584c.585 0 1.035.194 1.424.585l.142-.142c-.427-.428-.928-.643-1.566-.643v.2zm-1.425.585a1.9 1.9 0 0 1 1.425-.585v-.2c-.639 0-1.14.215-1.567.643l.142.142zm-.583 1.43c0-.588.194-1.04.583-1.43l-.142-.142c-.426.429-.64.931-.64 1.572h.2zm.583 1.43c-.39-.39-.583-.843-.583-1.43h-.2c0 .64.215 1.143.641 1.571l.142-.141zm1.425.585c-.585 0-1.036-.194-1.425-.585l-.142.141c.427.428.928.644 1.567.644v-.2zm-1.227-.785c.287.288.72.507 1.159.507v-.2c-.377 0-.76-.19-1.017-.448l-.142.141zm-.505-1.23c0 .506.217.94.505 1.23l.142-.141a1.549 1.549 0 0 1-.447-1.09h-.2zm.505-1.23a1.75 1.75 0 0 0-.505 1.23h.2c0-.449.192-.833.447-1.09l-.142-.14zm1.159-.507c-.43 0-.87.143-1.166.515l.156.124c.248-.31.623-.44 1.01-.44v-.2zm1.158.507c-.287-.289-.72-.507-1.158-.507v.2c.376 0 .76.19 1.017.448l.141-.141zm.505 1.23c0-.496-.142-.94-.513-1.238l-.125.156c.308.248.438.623.438 1.082h.2zm-.505 1.23c.289-.29.505-.724.505-1.23h-.2c0 .448-.192.833-.446 1.089l.141.141zm-1.158.507c.429 0 .87-.144 1.166-.515l-.157-.125c-.248.311-.623.44-1.01.44v.2z" fill="#fff"/><path fill-rule="evenodd" clip-rule="evenodd" d="M62.608 8.867V4.774h1.495c.34 0 .612.137.816.341.204.205.34.478.34.819 0 .162-.043.28-.094.425a5.526 5.526 0 0 0-.042.12.697.697 0 0 1-.408.342c.204.068.34.204.476.34.136.137.204.342.204.615 0 .34-.136.614-.34.818-.272.205-.544.341-.884.341h-1.563v-.068zm.544-2.32h.951c.204 0 .34-.067.476-.204.136-.136.204-.273.204-.41 0-.136-.068-.272-.204-.409a.616.616 0 0 0-.476-.204h-.951v1.228zm1.087 1.843h-1.02V7.025h1.02c.204 0 .34.068.476.205a.738.738 0 0 1 .204.477.62.62 0 0 1-.204.478.616.616 0 0 1-.476.205z" fill="#fff"/><path d="M62.608 4.774v-.1h-.1v.1h.1zm2.311.341l-.07.07.07-.07zm.246 1.244l-.094-.034.094.034zm-.042.12l.09.045.003-.006.002-.007-.095-.031zm-.408.342l-.032-.095-.283.095.283.094.032-.094zm.476.34l-.07.071.07-.07zm0 0l.07-.07-.07.07zm-.136 1.433l.06.08.006-.004.005-.005-.071-.07zm-2.447.341h-.1v.1h.1v-.1zm.544-2.387h-.1v.1h.1v-.1zm1.427-.205l.071.07-.07-.07zm0-.819l.071-.07-.07.07zm-1.427-.204v-.1h-.1v.1h.1zm.068 3.07h-.1v.1h.1v-.1zm0-1.365v-.1h-.1v.1h.1zm1.495.205l.07-.07-.07.07zm0 .955l-.07-.07.07.07zm-2.207-3.41v4.092h.2V4.774h-.2zm1.595-.1h-1.495v.2h1.495v-.2zm.887.37a1.224 1.224 0 0 0-.887-.37v.2c.31 0 .558.123.745.31l.142-.14zm.369.889c0-.37-.148-.668-.37-.89l-.14.142c.186.188.31.436.31.748h.2zm-.1.458c.051-.143.1-.277.1-.458h-.2c0 .142-.037.246-.088.391l.188.067zm-.041.119l.041-.119-.188-.067-.043.123.19.063zm-.471.404a.797.797 0 0 0 .466-.39l-.18-.09a.597.597 0 0 1-.35.29l.064.19zm.515.176c-.134-.135-.286-.288-.515-.365l-.064.19c.179.06.3.178.437.316l.142-.14zm0 0l-.142.141.142-.141zm.233.685c0-.289-.072-.523-.233-.685l-.142.141c.11.111.175.286.175.544h.2zm-.37.889c.222-.222.37-.52.37-.89h-.2c0 .313-.124.56-.31.749l.14.14zm-.954.37c.37 0 .663-.15.944-.36l-.12-.16c-.263.197-.514.32-.824.32v.2zm-1.563 0h1.563v-.2h-1.563v.2zm-.1-.168v.068h.2v-.068h-.2zm1.595-2.42h-.951v.2h.951v-.2zm.405-.175a.609.609 0 0 1-.182.133.532.532 0 0 1-.223.043v.2a.73.73 0 0 0 .304-.06c.091-.04.17-.1.243-.174l-.142-.142zm.175-.338c0 .1-.05.213-.175.338l.142.142c.147-.148.233-.308.233-.48h-.2zm-.175-.339c.125.126.175.238.175.339h.2c0-.172-.086-.333-.233-.48l-.142.141zm-.405-.175c.09 0 .161.015.223.042.062.028.12.07.182.133l.142-.141a.806.806 0 0 0-.243-.174.73.73 0 0 0-.304-.06v.2zm-.951 0h.951v-.2h-.951v.2zm.1 1.128V5.32h-.2v1.228h.2zM63.22 8.49h1.02v-.2h-1.02v.2zm-.1-1.465V8.39h.2V7.025h-.2zm1.12-.1h-1.02v.2h1.02v-.2zm.546.234a.805.805 0 0 0-.243-.174.73.73 0 0 0-.304-.06v.2c.09 0 .161.015.223.043.062.027.12.07.182.132l.142-.14zm.233.548a.837.837 0 0 0-.233-.548l-.142.141a.64.64 0 0 1 .175.407h.2zm-.233.549a.81.81 0 0 0 .174-.244.741.741 0 0 0 .059-.305h-.2a.546.546 0 0 1-.042.224.609.609 0 0 1-.133.183l.142.142zm-.547.234a.74.74 0 0 0 .304-.06c.091-.04.17-.1.243-.174l-.142-.142a.609.609 0 0 1-.182.133.533.533 0 0 1-.223.043v.2z" fill="#fff"/><defs><linearGradient id="paint0_linear" x1="11.852" y1="-5.067" x2="-1.66" y2="-1.427" gradientUnits="userSpaceOnUse"><stop stop-color="#00A0FF"/><stop offset=".007" stop-color="#00A1FF"/><stop offset=".26" stop-color="#00BEFF"/><stop offset=".512" stop-color="#00D2FF"/><stop offset=".76" stop-color="#00DFFF"/><stop offset="1" stop-color="#00E3FF"/></linearGradient><linearGradient id="paint1_linear" x1="22.999" y1="6.732" x2="6.551" y2="6.732" gradientUnits="userSpaceOnUse"><stop stop-color="#FFE000"/><stop offset=".409" stop-color="#FFBD00"/><stop offset=".775" stop-color="orange"/><stop offset="1" stop-color="#FF9C00"/></linearGradient><linearGradient id="paint2_linear" x1="6.854" y1="9.219" x2="-4.055" y2="27.471" gradientUnits="userSpaceOnUse"><stop stop-color="#FF3A44"/><stop offset="1" stop-color="#C31162"/></linearGradient><linearGradient id="paint3_linear" x1=".464" y1="2.783" x2="5.297" y2="10.945" gradientUnits="userSpaceOnUse"><stop stop-color="#32A071"/><stop offset=".069" stop-color="#2DA771"/><stop offset=".476" stop-color="#15CF74"/><stop offset=".801" stop-color="#06E775"/><stop offset="1" stop-color="#00F076"/></linearGradient></defs></svg>