<svg width="134" height="112" fill="none" xmlns="http://www.w3.org/2000/svg"><path fill-rule="evenodd" clip-rule="evenodd" d="M22.523 100.938c0-2.136-1.383-3.64-3.335-3.64-1.953 0-3.438 1.504-3.438 3.64 0 2.156 1.485 3.64 3.438 3.64 1.932 0 3.335-1.484 3.335-3.64zm2.32 0c0 3.417-2.177 5.837-5.167 5.837-1.75 0-3.09-.855-3.905-2.115v6.956h-2.299v-16.27h2.3v1.91c.813-1.28 2.154-2.155 3.924-2.155 2.93 0 5.146 2.42 5.146 5.837zm10.534 0c0-2.136-1.485-3.64-3.437-3.64-1.953 0-3.336 1.504-3.336 3.64 0 2.156 1.404 3.64 3.336 3.64 1.952 0 3.437-1.484 3.437-3.64zm2.278-5.593v11.186h-2.298v-1.871c-.813 1.281-2.156 2.115-3.905 2.115-2.99 0-5.166-2.42-5.166-5.837s2.217-5.837 5.146-5.837c1.77 0 3.112.874 3.925 2.155v-1.91h2.298zm12.651 0l-7.404 16.271h-2.461l2.949-6.508-4.413-9.763h2.461l3.173 7.281 3.234-7.281h2.461zm18.122 4.006v7.18H66.13v-6.692c0-1.668-.672-2.542-2.217-2.542-1.81 0-2.746 1.404-2.746 3.437l.02 5.797h-2.319v-6.692c0-1.668-.67-2.542-2.216-2.542-1.81 0-2.726 1.404-2.726 3.437v5.797h-2.298V95.345h2.298v1.79c.773-1.282 1.871-2.034 3.478-2.034 1.71 0 2.91.833 3.458 2.338.753-1.444 2.013-2.338 3.783-2.338 2.36 0 3.783 1.586 3.783 4.25zm4.169.347h6.509c-.346-1.526-1.505-2.604-3.194-2.604-1.75 0-2.928 1.099-3.316 2.604zm8.97 1.87h-9.092c.183 2.054 1.627 3.193 3.498 3.193 1.343 0 2.462-.569 2.99-1.668h2.38c-.874 2.502-3.01 3.682-5.39 3.682-3.398 0-5.817-2.441-5.817-5.817 0-3.376 2.4-5.858 5.776-5.858 3.6 0 5.878 2.787 5.654 6.468zm11.796-2.095v7.058h-2.298v-6.59c0-1.729-.753-2.644-2.441-2.644-1.973 0-3.031 1.281-3.031 3.437v5.797h-2.298V95.345h2.298v1.85c.793-1.302 1.994-2.095 3.743-2.095 2.522 0 4.027 1.648 4.027 4.373zm10.413 6.489c-.61.366-1.912.813-3.193.813-2.299 0-4.089-1.444-4.089-4.535V97.5H94.42v-2.155h2.074v-2.543l2.3-.508v3.05h4.596v2.157h-4.597v4.617c0 1.627.753 2.522 2.196 2.522.712 0 1.505-.244 2.38-.549l.407 1.871zm.793-3.031h2.339c.346 1.241 1.261 1.81 3.193 1.81 1.485 0 2.4-.447 2.4-1.282 0-.935-1.057-1.077-2.929-1.525-3.132-.773-4.454-1.403-4.454-3.274 0-2.258 1.912-3.56 4.719-3.56 2.868 0 4.474 1.363 4.881 3.397H112.4c-.326-.915-1.18-1.363-2.604-1.363-1.485 0-2.359.508-2.359 1.281 0 .712.691.895 2.644 1.363 3.03.712 4.78 1.241 4.78 3.417 0 2.4-2.156 3.58-4.801 3.58-2.949 0-5.064-1.424-5.491-3.844z" fill="#6496DC"/><mask id="a" maskUnits="userSpaceOnUse" x="0" y="1" width="134" height="56"><path fill-rule="evenodd" clip-rule="evenodd" d="M0 1h133.333v55.697H0V1z" fill="#fff"/></mask><g mask="url(#a)"><path fill-rule="evenodd" clip-rule="evenodd" d="M6.367 56.697c2.106-10.808 11.59-18.845 22.941-18.845 4.778 0 9.376 1.469 13.22 4.104l4.497-4.495a29.73 29.73 0 0 0-11.935-5.31C36.4 18.114 48.207 7.274 62.438 7.274a27.31 27.31 0 0 1 15.626 4.873 27.454 27.454 0 0 1 9.209 10.841 36.898 36.898 0 0 0-14.828 7.845l4.453 4.451a30.536 30.536 0 0 1 19.708-7.231c16.197 0 29.479 12.545 30.441 28.643h6.286c-.468-9.4-4.468-18.165-11.282-24.695-6.877-6.594-15.915-10.224-25.445-10.224-.991 0-1.977.045-2.957.123A33.7 33.7 0 0 0 81.638 6.99 33.561 33.561 0 0 0 62.438 1C44.95 1 30.441 14.33 28.84 31.582 14.232 31.808 2.157 42.532 0 56.697h6.367z" fill="#6496DC"/></g><path fill-rule="evenodd" clip-rule="evenodd" d="M12.51 74.019c0-6.324 4.693-11.135 11.133-11.135 5.2 0 9.816 3.143 10.631 8.574h-5.703c-.66-2.328-2.677-3.453-4.928-3.453-3.375 0-5.548 2.483-5.509 6.014-.039 3.569 2.212 6.013 5.471 6.013 2.29 0 4.306-1.164 4.966-3.492h5.703c-.854 5.626-5.548 8.613-10.669 8.613-6.402 0-11.096-4.81-11.096-11.134z" fill="#363663"/><mask id="b" maskUnits="userSpaceOnUse" x="0" y="1" width="134" height="111"><path fill-rule="evenodd" clip-rule="evenodd" d="M0 111.616h133.333V1H0v110.616z" fill="#fff"/></mask><g mask="url(#b)" fill-rule="evenodd" clip-rule="evenodd" fill="#363663"><path d="M36.872 84.687h5.548V56.724h-5.548v27.963zm14.083-10.668c0 3.53 2.405 5.858 5.509 5.858 3.103 0 5.509-2.328 5.509-5.858 0-3.492-2.406-5.858-5.51-5.858-3.103 0-5.508 2.366-5.508 5.858zm16.643 0c0 6.44-4.888 11.134-11.134 11.134-6.208 0-11.096-4.733-11.096-11.134 0-6.44 4.966-11.135 11.096-11.135 6.168 0 11.134 4.695 11.134 11.135zM90.06 63.35v21.338h-5.548v-2.95c-1.552 2.174-3.647 3.415-6.595 3.415-4.695 0-7.604-3.22-7.604-8.418V63.35h5.548v12.182c0 2.793 1.047 4.345 3.918 4.345 3.065 0 4.733-1.823 4.733-5.315V63.35h5.548zm19.668 10.669c0-3.492-2.367-5.858-5.47-5.858-3.104 0-5.393 2.366-5.393 5.858 0 3.53 2.328 5.858 5.393 5.858 3.103 0 5.47-2.328 5.47-5.858zm5.548-17.294v27.963h-5.548v-2.871c-1.474 2.017-3.724 3.336-6.712 3.336-5.548 0-9.738-4.578-9.738-11.134 0-6.596 4.23-11.135 9.7-11.135 3.026 0 5.276 1.397 6.75 3.453v-9.612h5.548z"/></g></svg>