<svg width="92" height="28" fill="none" xmlns="http://www.w3.org/2000/svg"><path d="M84.448 0H5.753c-.537 0-.998.068-1.534.136-.46.069-.998.205-1.458.41-.46.204-.843.477-1.227.818-.383.341-.69.683-.92 1.092-.23.41-.384.887-.46 1.296C.076 4.229 0 4.707 0 5.116v16.986c0 .478.077.887.153 1.365.077.477.23.887.46 1.296.23.477.538.818.921 1.16.384.34.767.614 1.227.818.46.205.92.341 1.458.41.536.068.997.136 1.534.136H85.98c.538 0 .998-.068 1.534-.136a5.05 5.05 0 0 0 1.458-.41c.46-.204.844-.477 1.227-.818.384-.341.69-.683.92-1.092.23-.41.384-.819.46-1.296.078-.477.155-.887.155-1.364V5.115c0-.477-.077-.887-.154-1.364a3.805 3.805 0 0 0-.46-1.296c-.46-.819-1.228-1.501-2.148-1.91a5.05 5.05 0 0 0-1.458-.41C86.978.068 86.52 0 85.981 0h-1.533z" fill="#A6A6A6"/><path d="M6.443 26.672h-.69c-.46 0-.997-.068-1.457-.136-.46-.068-.844-.205-1.304-.341-.384-.205-.767-.41-1.074-.682-.307-.273-.614-.614-.767-.955-.23-.341-.307-.75-.383-1.16-.077-.41-.154-.819-.154-1.296V5.116c0-.41.077-.887.154-1.296.076-.341.23-.75.46-1.092.23-.341.46-.682.767-.955.307-.273.69-.477 1.074-.682.383-.205.843-.273 1.303-.341.46-.068.92-.137 1.458-.137h80.229c.46 0 .92.069 1.457.137.46.068.844.204 1.304.34.767.342 1.458.956 1.84 1.638.23.341.308.75.385 1.092.076.409.153.886.153 1.296v16.986c0 .41-.077.818-.153 1.296-.077.41-.23.75-.384 1.16-.23.34-.46.682-.767.955-.307.273-.69.545-1.074.682a2.825 2.825 0 0 1-1.304.341c-.46.068-.92.136-1.457.136H6.443z" fill="#000"/><path d="M21.864 13.85a3.35 3.35 0 0 1 1.631-2.865c-.612-.887-1.631-1.433-2.719-1.501-1.156-.137-2.243.682-2.855.682-.612 0-1.496-.682-2.447-.682-1.292.068-2.447.75-3.06 1.841-1.29 2.252-.34 5.663.952 7.505.612.886 1.36 1.91 2.312 1.91.951-.069 1.291-.614 2.447-.614 1.155 0 1.427.613 2.447.613s1.631-.886 2.243-1.841c.476-.614.816-1.365 1.02-2.115-1.224-.41-1.971-1.637-1.971-2.933zM19.96 8.323c.544-.682.816-1.5.748-2.387a3.15 3.15 0 0 0-2.176 1.16c-.544.613-.815 1.432-.747 2.319.883 0 1.631-.41 2.175-1.092z" fill="#fff"/><path fill-rule="evenodd" clip-rule="evenodd" d="M30.564 18.487h3.195l.816 2.32h1.36l-3.06-8.46h-1.36l-3.058 8.46h1.36l.747-2.32zm2.923-1.023h-2.583l1.224-3.752h.068l1.291 3.752zm6.459 3.41c1.563 0 2.583-1.228 2.583-3.138s-1.088-3.206-2.584-3.138c-.815 0-1.563.41-1.97 1.092v-1.024H36.75v8.186h1.291v-3.07c.34.683 1.088 1.16 1.904 1.092zm-.408-5.184c1.02 0 1.631.818 1.631 2.046 0 1.228-.612 2.047-1.631 2.047-.952 0-1.632-.819-1.632-2.047 0-1.228.68-2.046 1.632-2.046zm7.137 5.184c1.563 0 2.583-1.228 2.583-3.138s-1.02-3.206-2.583-3.138a2.28 2.28 0 0 0-1.971 1.092v-1.024H43.48v8.186h1.292v-3.07c.34.683 1.087 1.16 1.903 1.092zm-.34-5.184c1.02 0 1.632.818 1.632 2.046 0 1.228-.612 2.047-1.632 2.047-.952 0-1.631-.819-1.631-2.047 0-1.228.68-2.046 1.631-2.046z" fill="#fff"/><path d="M53.745 18.42c.068.818.884 1.364 2.04 1.364 1.087 0 1.835-.546 1.835-1.296 0-.683-.476-1.024-1.564-1.296l-1.087-.273c-1.564-.41-2.243-1.092-2.243-2.252 0-1.432 1.291-2.455 3.059-2.455 1.767 0 2.99 1.023 3.059 2.455h-1.292c-.068-.818-.748-1.364-1.767-1.364-1.02 0-1.7.546-1.7 1.296 0 .614.476.955 1.564 1.228l.951.205c1.7.41 2.447 1.091 2.447 2.32 0 1.568-1.291 2.591-3.262 2.591-1.904 0-3.127-.955-3.195-2.524h1.155zm7.885-5.254V14.6h1.155v1.023H61.63v3.411c0 .546.203.75.747.75h.408v1.024c-.204.068-.476.068-.68.068-1.223 0-1.7-.478-1.7-1.637V15.69h-.883v-1.023h.884v-1.432h1.224v-.069z" fill="#fff"/><path fill-rule="evenodd" clip-rule="evenodd" d="M66.456 14.599c-1.767 0-2.923 1.227-2.923 3.138 0 1.91 1.088 3.138 2.923 3.138 1.767 0 2.923-1.16 2.923-3.138 0-1.91-1.156-3.138-2.923-3.138zm0 1.023c1.02 0 1.631.75 1.631 2.115 0 1.296-.611 2.114-1.631 2.114s-1.632-.75-1.632-2.114c0-1.365.612-2.115 1.632-2.115z" fill="#fff"/><path d="M70.4 14.6h1.223v1.09c.136-.681.816-1.16 1.495-1.09.136 0 .272 0 .408.067v1.16c-.204-.068-.408-.068-.544-.068-.68 0-1.291.546-1.291 1.228v3.888h-1.292V14.6z" fill="#fff"/><path fill-rule="evenodd" clip-rule="evenodd" d="M76.721 20.875c1.36 0 2.448-.819 2.652-1.91h-1.224c-.204.614-.815.955-1.428.887h-.203c-.884-.137-1.496-.887-1.428-1.774v-.068h4.35v-.41c0-1.91-1.087-3.07-2.787-3.07-1.767 0-2.854 1.297-2.854 3.207s1.155 3.138 2.922 3.138zm1.428-3.752H75.09c0-.887.68-1.57 1.495-1.57h.136c.816.07 1.496.751 1.428 1.57z" fill="#fff"/><path d="M29.952 7.708h.544c.34.069.68-.204.748-.614v-.068c0-.409-.272-.614-.748-.614-.408-.068-.748.205-.816.614h-.612a1.343 1.343 0 0 1 1.36-1.228h.068c.816 0 1.36.478 1.36 1.092 0 .477-.273.818-.748.955v.068c.543 0 .951.478.883.955-.068.75-.747 1.296-1.495 1.228-.748.068-1.428-.41-1.496-1.16v-.068h.612c.068.41.408.614.952.614s.884-.273.884-.682c0-.41-.34-.682-.884-.682h-.544v-.41h-.068z" fill="#fff"/><path fill-rule="evenodd" clip-rule="evenodd" d="M33.894 8.253c-.747 0-1.155.342-1.155.887 0 .03 0 .046-.005.06a.26.26 0 0 1-.063.077c.068.477.544.887 1.02.818.407 0 .747-.136.951-.477h.068v.41h.612V7.911c0-.614-.476-1.023-1.224-1.023-.68 0-1.155.341-1.223.887h.611c.068-.205.272-.341.612-.341.408 0 .612.136.612.477v.273l-.816.068zm.816.342v.272c0 .478-.408.75-.816.614-.272 0-.544-.136-.544-.409 0-.205.204-.41.612-.41l.748-.067z" fill="#fff"/><path d="M36.954 7.436v2.592h-.611v-3.07h2.039v.478h-1.428z" fill="#fff"/><path fill-rule="evenodd" clip-rule="evenodd" d="M40.693 10.027c.816 0 1.291-.614 1.291-1.569s-.475-1.569-1.291-1.637c-.408 0-.748.205-.952.546h-.068v-.478h-.612v4.093h.612v-1.5h.068c.204.34.544.545.952.545zm-.136-2.592c.476 0 .816.341.816 1.023 0 .683-.272 1.092-.816 1.024-.476 0-.816-.41-.816-1.024 0-.614.34-1.023.816-1.023z" fill="#fff"/><path d="M42.8 11.12v-.546h.204c.272 0 .476-.136.544-.41l.068-.136-1.087-3.07h.68l.747 2.456h.068l.748-2.455h.612l-1.156 3.206c-.272.75-.544.955-1.156.955H42.8zm3.059-1.98h.611c.068.273.34.41.68.41.408 0 .68-.205.68-.478s-.204-.41-.68-.41h-.476v-.477h.476c.34 0 .544-.136.544-.409 0-.205-.204-.41-.544-.41-.34 0-.612.137-.612.41h-.611c.068-.546.611-.955 1.223-.887.748 0 1.156.341 1.156.819a.655.655 0 0 1-.476.614v.068c.34.068.612.341.612.682 0 .614-.476.955-1.224.955-.748.068-1.291-.273-1.36-.887zm3.399.888v-3.07h.612v2.115l1.427-2.114h.612v3.07h-.612V7.913h-.068l-1.427 2.114h-.544zm5.914-2.592h-.951v2.592h-.612V7.436h-.952V6.96h2.515v.477z" fill="#fff"/><path fill-rule="evenodd" clip-rule="evenodd" d="M57.075 10.097c.612.068 1.223-.341 1.36-.887l-.612.068c-.136.205-.476.41-.748.341h-.068c-.476-.068-.816-.41-.748-.887h2.175v-.204c0-.955-.475-1.57-1.36-1.57h-.203a1.347 1.347 0 0 0-1.224 1.57v.204c0 .75.68 1.365 1.428 1.365zm.816-1.91h-1.564c0-.41.34-.75.816-.82h.068a.81.81 0 0 1 .68.82zm3.126-1.228h1.36c.612 0 .952.272.952.75 0 .341-.204.614-.544.682v.068c.34 0 .68.341.68.683 0 .545-.408.886-1.088.886h-1.428v-3.07h.068zm.612.477v.75h.612c.34 0 .544-.136.544-.409 0-.273-.136-.41-.476-.41l-.68.07zm0 2.115v-.887l.68-.068c.408 0 .612.136.612.477 0 .341-.204.478-.544.478h-.748z" fill="#fff"/></svg>