<svg width="201" height="22" fill="none" xmlns="http://www.w3.org/2000/svg"><mask id="a" maskUnits="userSpaceOnUse" x="115" y="7" width="10" height="15"><path fill-rule="evenodd" clip-rule="evenodd" d="M115.443 7.2h9.528v13.839h-9.528V7.199z" fill="#fff"/></mask><g mask="url(#a)"><path fill-rule="evenodd" clip-rule="evenodd" d="M123.028 12.09c0-1.789-1.159-3.05-2.795-3.05s-2.881 1.261-2.881 3.05c0 1.806 1.245 3.051 2.881 3.051 1.619 0 2.795-1.245 2.795-3.05zm1.943 0c0 2.864-1.824 4.892-4.329 4.892-1.466 0-2.59-.716-3.273-1.772v5.829h-1.926V7.404h1.926v1.601c.683-1.073 1.807-1.806 3.289-1.806 2.455 0 4.313 2.028 4.313 4.891z" fill="#6F7D88"/></g><path fill-rule="evenodd" clip-rule="evenodd" d="M133.798 12.09c0-1.789-1.244-3.05-2.88-3.05s-2.795 1.261-2.795 3.05c0 1.806 1.176 3.051 2.795 3.051 1.636 0 2.88-1.245 2.88-3.05zm1.909-4.686v9.373h-1.926V15.21c-.681 1.074-1.807 1.772-3.272 1.772-2.505 0-4.329-2.028-4.329-4.892 0-2.863 1.858-4.89 4.312-4.89 1.482 0 2.608.732 3.289 1.805V7.404h1.926z" fill="#6F7D88"/><mask id="b" maskUnits="userSpaceOnUse" x="136" y="7" width="11" height="15"><path fill-rule="evenodd" clip-rule="evenodd" d="M136.815 7.403h9.493v13.635h-9.493V7.403z" fill="#fff"/></mask><g mask="url(#b)"><path fill-rule="evenodd" clip-rule="evenodd" d="M146.308 7.403l-6.204 13.635h-2.062l2.471-5.454-3.698-8.18h2.061l2.66 6.1 2.709-6.1h2.063z" fill="#6F7D88"/></g><path fill-rule="evenodd" clip-rule="evenodd" d="M161.495 10.761v6.017h-1.926V11.17c0-1.398-.562-2.13-1.858-2.13-1.516 0-2.301 1.176-2.301 2.88l.017 4.857h-1.943V11.17c0-1.398-.562-2.13-1.857-2.13-1.517 0-2.284 1.176-2.284 2.88v4.857h-1.927V7.405h1.927v1.5c.647-1.075 1.568-1.705 2.914-1.705 1.431 0 2.438.699 2.897 1.96.631-1.211 1.688-1.96 3.17-1.96 1.977 0 3.171 1.329 3.171 3.562zm3.493.289h5.453c-.289-1.277-1.26-2.18-2.674-2.18-1.466 0-2.455.92-2.779 2.18zm7.516 1.569h-7.618c.153 1.721 1.364 2.676 2.931 2.676 1.125 0 2.063-.477 2.505-1.398h1.995c-.733 2.096-2.523 3.085-4.516 3.085-2.847 0-4.875-2.045-4.875-4.874 0-2.83 2.012-4.909 4.841-4.909 3.016 0 4.925 2.335 4.737 5.42zm9.884-1.756v5.915h-1.926v-5.523c0-1.45-.63-2.216-2.045-2.216-1.653 0-2.54 1.074-2.54 2.881v4.857h-1.926V7.405h1.926v1.551c.665-1.092 1.671-1.756 3.136-1.756 2.114 0 3.375 1.38 3.375 3.664zm8.728 5.437c-.511.307-1.602.682-2.677.682-1.925 0-3.425-1.21-3.425-3.801V9.21h-1.739V7.404h1.739V5.273l1.926-.426v2.557h3.853V9.21h-3.853v3.87c0 1.362.631 2.112 1.841 2.112.597 0 1.261-.204 1.994-.46l.341 1.569zm.663-2.54h1.96c.29 1.04 1.057 1.517 2.677 1.517 1.244 0 2.01-.374 2.01-1.073 0-.784-.886-.903-2.453-1.278-2.626-.648-3.734-1.177-3.734-2.745 0-1.892 1.602-2.982 3.955-2.982 2.403 0 3.749 1.142 4.09 2.846h-1.943c-.272-.767-.988-1.142-2.181-1.142-1.245 0-1.977.425-1.977 1.074 0 .595.579.75 2.216 1.141 2.539.598 4.004 1.04 4.004 2.863 0 2.012-1.806 3-4.021 3-2.472 0-4.245-1.192-4.603-3.22zM67.46 12.28c0-2.759 2.048-4.857 4.857-4.857 2.268 0 4.28 1.37 4.636 3.739h-2.487c-.288-1.015-1.168-1.506-2.15-1.506-1.47 0-2.418 1.083-2.402 2.623-.016 1.557.966 2.622 2.387 2.622.997 0 1.877-.507 2.165-1.522h2.487c-.372 2.454-2.42 3.757-4.652 3.757-2.793 0-4.84-2.099-4.84-4.857zm10.626 4.652h2.42V4.736h-2.42v12.196zm6.142-4.652c0 1.539 1.049 2.554 2.403 2.554s2.403-1.015 2.403-2.555c0-1.523-1.049-2.555-2.403-2.555s-2.403 1.032-2.403 2.555zm7.259 0c0 2.808-2.133 4.856-4.856 4.856-2.708 0-4.84-2.066-4.84-4.857 0-2.809 2.166-4.856 4.84-4.856 2.69 0 4.856 2.047 4.856 4.856zm9.797-4.654v9.306h-2.42v-1.286c-.676.948-1.59 1.49-2.875 1.49-2.048 0-3.317-1.405-3.317-3.673V7.626h2.42v5.313c0 1.218.456 1.895 1.709 1.895 1.336 0 2.064-.795 2.064-2.318v-4.89h2.419zm8.578 4.653c0-1.523-1.032-2.555-2.386-2.555s-2.353 1.032-2.353 2.555c0 1.54 1.016 2.555 2.353 2.555 1.354 0 2.386-1.016 2.386-2.555zm2.419-7.543v12.196h-2.419v-1.253c-.643.88-1.624 1.456-2.928 1.456-2.419 0-4.246-1.997-4.246-4.856 0-2.877 1.844-4.857 4.229-4.857 1.321 0 2.302.61 2.945 1.506V4.736h2.419zM0 5.976l1.072-.093c.051.43.168.783.352 1.06.187.274.476.496.867.668.391.168.83.252 1.318.252a3.16 3.16 0 0 0 1.149-.193c.332-.129.578-.305.738-.527.164-.227.246-.473.246-.739 0-.27-.078-.504-.234-.703-.156-.203-.414-.373-.774-.51-.23-.09-.74-.228-1.529-.416-.789-.191-1.342-.37-1.658-.539-.41-.215-.717-.48-.92-.797a1.991 1.991 0 0 1-.299-1.072c0-.433.123-.838.369-1.213.246-.379.606-.666 1.078-.861A4.093 4.093 0 0 1 3.352 0c.636 0 1.197.103 1.681.31.489.204.864.504 1.125.903.262.398.403.85.422 1.353l-1.09.082c-.058-.543-.258-.953-.597-1.23-.336-.277-.834-.416-1.494-.416-.688 0-1.19.127-1.506.38-.313.25-.469.554-.469.909 0 .309.111.563.334.762.219.199.789.404 1.711.615.926.207 1.56.389 1.904.545.5.23.869.523 1.108.879.238.351.357.758.357 1.219 0 .457-.131.888-.393 1.294-.261.403-.638.717-1.13.944-.489.223-1.04.334-1.653.334-.777 0-1.43-.113-1.957-.34a2.766 2.766 0 0 1-1.236-1.02A2.931 2.931 0 0 1 0 5.977zm12.516.756l1.09.135c-.172.637-.491 1.131-.956 1.483-.464.351-1.058.527-1.781.527-.91 0-1.633-.28-2.168-.838-.531-.563-.797-1.35-.797-2.361 0-1.047.27-1.86.809-2.438.539-.578 1.238-.867 2.098-.867.832 0 1.511.283 2.039.85.527.566.791 1.363.791 2.39 0 .063-.002.156-.006.281H8.994c.039.684.233 1.207.58 1.57.348.364.782.546 1.301.546.387 0 .717-.102.99-.305.274-.203.491-.527.651-.973zm.011-1.705H9.053c.035-.543.217-.976.545-1.3.332-.325.74-.487 1.224-.487.535 0 .971.203 1.307.61.219.261.352.654.398 1.177zm6.469 1.43l1.037.135c-.113.715-.404 1.275-.873 1.681-.465.403-1.037.604-1.717.604-.851 0-1.537-.277-2.056-.832-.516-.559-.774-1.357-.774-2.397 0-.671.112-1.26.334-1.763a2.32 2.32 0 0 1 1.014-1.131 3.013 3.013 0 0 1 1.488-.381c.676 0 1.229.172 1.658.516.43.34.706.824.827 1.453l-1.026.158c-.097-.418-.271-.732-.521-.943a1.331 1.331 0 0 0-.897-.317c-.531 0-.963.192-1.295.574-.332.38-.498.98-.498 1.805 0 .836.16 1.444.481 1.822.32.38.738.569 1.254.569.414 0 .759-.127 1.037-.381.277-.254.453-.645.527-1.172zm6.018 1.365v.914h.943V2.514h-1.055v3.334c0 .53-.058.937-.175 1.218a1.359 1.359 0 0 1-.586.663c-.278.16-.575.24-.891.24-.316 0-.582-.078-.797-.235a1.115 1.115 0 0 1-.422-.656c-.043-.191-.064-.562-.064-1.113V2.514h-1.055v3.855c0 .45.022.777.065.985.062.308.17.57.322.785.156.21.392.386.709.527.32.14.664.21 1.031.21.832 0 1.49-.35 1.975-1.054zm2.59.914V2.514h.949v.943c.242-.441.465-.732.668-.873.207-.14.433-.211.679-.211.356 0 .717.113 1.084.34l-.363.978a1.507 1.507 0 0 0-.773-.228.993.993 0 0 0-.621.21 1.108 1.108 0 0 0-.393.575 4.114 4.114 0 0 0-.176 1.23v3.258h-1.054zm9.357-1.869l-1.09-.135c-.16.446-.377.77-.65.973-.274.203-.604.305-.99.305-.52 0-.954-.182-1.301-.545-.348-.364-.541-.887-.58-1.57h4.64c.004-.125.006-.22.006-.282 0-1.027-.264-1.824-.791-2.39-.527-.567-1.207-.85-2.039-.85-.859 0-1.559.29-2.098.867-.539.578-.808 1.39-.808 2.438 0 1.011.265 1.798.797 2.361.535.559 1.258.838 2.168.838.722 0 1.316-.176 1.781-.527.465-.352.783-.846.955-1.483zm-4.553-1.84h3.475c-.047-.523-.18-.916-.399-1.177a1.614 1.614 0 0 0-1.306-.61c-.485 0-.893.162-1.225.486-.328.325-.51.758-.545 1.301zm9.92 2.924v.785h.979V.146h-1.049V3.23a2.07 2.07 0 0 0-.715-.616 2.054 2.054 0 0 0-1.002-.24c-.512 0-.975.135-1.389.404-.414.27-.724.659-.931 1.166a4.403 4.403 0 0 0-.311 1.688c0 .636.113 1.201.34 1.693.231.489.553.87.967 1.143.418.273.875.41 1.371.41.766 0 1.346-.309 1.74-.926zm-3.334-2.32c0 .797.168 1.392.504 1.787.336.394.733.592 1.19.592.461 0 .851-.188 1.171-.563.325-.379.487-.955.487-1.728 0-.852-.164-1.477-.492-1.875-.329-.399-.733-.598-1.213-.598-.469 0-.862.192-1.178.574-.313.383-.469.987-.469 1.81zm9.311 3.105h.978v-.779c.418.613.994.92 1.729.92.738 0 1.371-.291 1.898-.873.528-.582.791-1.406.791-2.473 0-.449-.062-.87-.187-1.265a3.069 3.069 0 0 0-.522-1.008 2.157 2.157 0 0 0-.843-.65 2.567 2.567 0 0 0-1.084-.235c-.692 0-1.26.28-1.706.838V.147h-1.054v8.59zm.967-3.158c0 .746.101 1.285.304 1.617.332.543.781.815 1.348.815.461 0 .859-.2 1.195-.598.336-.402.504-1 .504-1.793 0-.812-.162-1.412-.486-1.799-.321-.386-.709-.58-1.166-.58-.461 0-.86.201-1.196.604-.335.398-.503.976-.503 1.734zm5.554 4.564l.117.99c.25.087.477.13.68.13.336 0 .625-.082.867-.246.242-.16.457-.415.645-.762.14-.258.338-.729.592-1.412l2.367-6.328h-1.055l-1.33 3.627c-.168.46-.312.933-.434 1.418a15.726 15.726 0 0 0-.451-1.442l-1.295-3.603h-1.136l2.361 6.234c-.043.113-.074.2-.094.258-.148.418-.256.68-.322.785a.957.957 0 0 1-.346.328c-.14.078-.328.117-.562.117-.172 0-.373-.03-.604-.094z" fill="#6F7D88"/></svg>