<svg width="206" height="163" fill="none" xmlns="http://www.w3.org/2000/svg"><path fill-rule="evenodd" clip-rule="evenodd" d="M201.857 156.375a1.629 1.629 0 0 0-.649-.13c-.236 0-.452.043-.656.13a1.608 1.608 0 0 0-.884.868c-.087.196-.13.409-.13.633 0 .224.043.436.13.632.086.197.204.37.353.519.15.145.327.263.531.35.204.086.42.129.656.129.232 0 .444-.043.649-.129.2-.087.373-.205.526-.35.15-.149.267-.322.354-.519a1.56 1.56 0 0 0 .13-.632 1.61 1.61 0 0 0-.484-1.152 1.639 1.639 0 0 0-.526-.349zm-.649 2.774a1.284 1.284 0 0 0 .892-.373c.114-.114.205-.248.271-.405a1.294 1.294 0 0 0 0-.99 1.268 1.268 0 0 0-.672-.676 1.253 1.253 0 0 0-.491-.095 1.27 1.27 0 0 0-.908.366 1.242 1.242 0 0 0-.267.405 1.219 1.219 0 0 0-.098.495c0 .176.031.342.098.495a1.211 1.211 0 0 0 .676.676c.153.066.322.102.499.102zm.546-1.906c-.106-.086-.255-.13-.448-.13h-.699v1.513h.322v-.566h.15l.459.566h.385l-.495-.57a.61.61 0 0 0 .358-.149.407.407 0 0 0 .126-.31.428.428 0 0 0-.158-.354zm-.825.558v-.405h.374c.082 0 .153.016.204.051a.173.173 0 0 1 .075.15.18.18 0 0 1-.075.153.397.397 0 0 1-.204.051h-.374zm-152.823-7.384c0-2.884 1.89-5.254 4.979-5.254 2.951 0 4.943 2.268 4.943 5.254 0 2.987-1.992 5.254-4.943 5.254-3.089 0-4.979-2.369-4.979-5.254zm13.286-8.205v16.41h-3.568v-1.992c-1.132 1.478-2.849 2.405-5.183 2.405-4.602 0-8.21-3.604-8.21-8.618 0-5.01 3.608-8.617 8.21-8.617 2.334 0 4.051.927 5.183 2.404v-1.992h3.568zm120.577 8.205c0-2.884 1.89-5.254 4.979-5.254 2.955 0 4.943 2.268 4.943 5.254 0 2.987-1.988 5.254-4.943 5.254-3.089 0-4.979-2.369-4.979-5.254zm13.29-14.795v23h-3.572v-1.992c-1.132 1.478-2.849 2.405-5.183 2.405-4.602 0-8.209-3.604-8.209-8.618 0-5.01 3.607-8.617 8.209-8.617 2.334 0 4.051.927 5.183 2.404v-8.582h3.572zm-89.576 9.372c2.299 0 3.776 1.443 4.154 3.981h-8.516c.381-2.37 1.819-3.981 4.362-3.981zm-8.103 5.423c0-5.116 3.364-8.617 8.174-8.617 4.597 0 7.757 3.501 7.792 8.617 0 .48-.035.928-.071 1.372H101.29c.514 2.955 2.609 4.02 4.908 4.02 1.646 0 3.399-.621 4.774-1.718l1.749 2.645c-1.992 1.682-4.256 2.299-6.728 2.299-4.912 0-8.413-3.399-8.413-8.618zm51.258 0c0-2.884 1.89-5.254 4.979-5.254 2.951 0 4.943 2.268 4.943 5.254 0 2.987-1.992 5.254-4.943 5.254-3.089 0-4.979-2.369-4.979-5.254zm13.286-8.205v16.41h-3.568v-1.992c-1.136 1.478-2.849 2.405-5.183 2.405-4.602 0-8.209-3.604-8.209-8.618 0-5.01 3.607-8.617 8.209-8.617 2.334 0 4.047.927 5.183 2.404v-1.992h3.568zm-33.437 8.205c0 4.979 3.466 8.618 8.755 8.618 2.472 0 4.118-.55 5.902-1.957l-1.713-2.884c-1.34.962-2.747 1.477-4.295 1.477-2.849-.035-4.943-2.094-4.943-5.254 0-3.159 2.094-5.218 4.943-5.254 1.548 0 2.955.515 4.295 1.478l1.713-2.884c-1.784-1.407-3.43-1.957-5.902-1.957-5.289 0-8.755 3.638-8.755 8.617zm41.678-6.213c.927-1.442 2.267-2.404 4.326-2.404.723 0 1.753.137 2.543.448l-1.101 3.363c-.754-.31-1.509-.412-2.232-.412-2.334 0-3.501 1.509-3.501 4.224v9.199h-3.572v-16.41h3.537v1.992zm-91.325-.687c-1.717-1.132-4.083-1.717-6.692-1.717-4.158 0-6.834 1.992-6.834 5.253 0 2.677 1.993 4.327 5.663 4.842l1.686.239c1.957.276 2.88.79 2.88 1.718 0 1.269-1.304 1.992-3.74 1.992-2.473 0-4.257-.79-5.46-1.717l-1.681 2.778c1.957 1.442 4.429 2.13 7.105 2.13 4.739 0 7.486-2.232 7.486-5.356 0-2.885-2.162-4.393-5.734-4.908l-1.681-.244c-1.545-.204-2.783-.511-2.783-1.611 0-1.203 1.167-1.922 3.124-1.922 2.095 0 4.123.79 5.117 1.407l1.544-2.884zm41.717.687c.923-1.442 2.263-2.404 4.323-2.404.723 0 1.752.137 2.542.448l-1.1 3.363c-.755-.31-1.509-.412-2.232-.412-2.334 0-3.502 1.509-3.502 4.224v9.199h-3.568v-16.41h3.537v1.992zm-26.128-1.992h-5.836v-4.979h-3.607v4.979h-3.328v3.262h3.328v7.486c0 3.808 1.478 6.075 5.698 6.075 1.548 0 3.332-.48 4.464-1.269l-1.03-3.058c-1.064.617-2.232.928-3.159.928-1.784 0-2.366-1.101-2.366-2.747v-7.415h5.836v-3.262zm-53.353 6.111v10.299H37.67v-9.132c0-2.782-1.167-4.327-3.603-4.327-2.37 0-4.017 1.513-4.017 4.362v9.097h-3.607v-9.132c0-2.782-1.198-4.327-3.568-4.327-2.44 0-4.02 1.513-4.02 4.362v9.097h-3.603v-16.41h3.572v2.024c1.34-1.922 3.053-2.436 4.805-2.436 2.508 0 4.292 1.1 5.423 2.919 1.513-2.302 3.674-2.955 5.769-2.919 3.985.035 6.456 2.644 6.456 6.523z" fill="#fff"/><path fill-rule="evenodd" clip-rule="evenodd" d="M199.165 102.059v1.989h-.44v-1.989h-.802v-.404h2.044v.404h-.802zm3.965-.408v2.397h-.44v-1.812l-.676 1.564h-.46l-.676-1.56v1.808h-.444v-2.397h.629l.719 1.646.723-1.646h.625z" fill="#F79410"/><path d="M132.082 114.359H78.004V17.171h54.078v97.188z" fill="#FF5F00"/><path d="M81.469 65.757c0-19.715 9.23-37.276 23.605-48.593A61.538 61.538 0 0 0 66.878 3.948c-34.133 0-61.801 27.673-61.801 61.81 0 34.136 27.668 61.808 61.801 61.808a61.536 61.536 0 0 0 38.196-13.215C90.7 103.034 81.469 85.472 81.469 65.757z" fill="#EB001B"/><path d="M205.016 65.757c0 34.137-27.668 61.809-61.801 61.809a61.556 61.556 0 0 1-38.2-13.215c14.378-11.317 23.609-28.879 23.609-48.594s-9.231-37.276-23.609-48.593a61.558 61.558 0 0 1 38.2-13.216c34.133 0 61.801 27.673 61.801 61.81z" fill="#F79E1B"/></svg>