<svg width="71" height="23" fill="none" xmlns="http://www.w3.org/2000/svg"><mask id="a" maskUnits="userSpaceOnUse" x="0" y="12" width="71" height="11"><path fill-rule="evenodd" clip-rule="evenodd" d="M0 12.887h70.831v9.311H0v-9.31z" fill="#fff"/></mask><g mask="url(#a)"><path fill-rule="evenodd" clip-rule="evenodd" d="M67.929 16.971c-.238 0-.448.035-.632.107a1.379 1.379 0 0 0-.477.31 1.617 1.617 0 0 0-.327.475 2.268 2.268 0 0 0-.178.607h3.157c-.072-.474-.241-.843-.508-1.105-.267-.263-.612-.394-1.035-.394zm.025-1.182c.424 0 .812.078 1.165.232.354.155.657.373.909.655.252.282.448.618.591 1.01.141.391.212.824.212 1.298a5.346 5.346 0 0 1-.025.495h-4.497c.042.276.12.511.235.705a1.616 1.616 0 0 0 .953.756c.199.06.406.09.622.09.305 0 .611-.056.918-.169.307-.112.587-.27.842-.473l.66.946a3.295 3.295 0 0 1-1.185.667 4.463 4.463 0 0 1-1.317.191c-.457 0-.877-.077-1.258-.229a2.847 2.847 0 0 1-.985-.647 2.931 2.931 0 0 1-.641-1.01 3.608 3.608 0 0 1-.229-1.315c0-.475.074-.909.222-1.302a2.99 2.99 0 0 1 .623-1.013c.267-.282.585-.5.956-.655a3.177 3.177 0 0 1 1.229-.232zm-7.501 1.252a1.74 1.74 0 0 0-1.709 1.194 2.245 2.245 0 0 0-.127.755c0 .267.043.52.127.757.085.237.206.443.362.618.157.176.349.316.575.42.227.104.484.155.772.155.275 0 .524-.049.75-.149.224-.099.416-.236.577-.41.161-.173.286-.378.375-.615.089-.237.133-.495.133-.775a2.19 2.19 0 0 0-.133-.775 1.856 1.856 0 0 0-.375-.616 1.743 1.743 0 0 0-.577-.41 1.846 1.846 0 0 0-.75-.149zm-.159-1.252c.436 0 .811.082 1.124.245.313.163.576.38.788.651v-3.798h1.328v9.146h-1.328v-.73c-.212.27-.475.487-.788.647-.313.161-.688.242-1.124.242-.427 0-.826-.079-1.194-.238a2.974 2.974 0 0 1-.965-.665 3.053 3.053 0 0 1-.649-1.013 3.441 3.441 0 0 1-.234-1.286c0-.465.078-.895.234-1.286.157-.39.373-.729.649-1.013a2.956 2.956 0 0 1 2.159-.902zm-7.272 1.252c-.272 0-.524.048-.756.143a1.776 1.776 0 0 0-.604.4c-.17.171-.302.376-.4.616-.097.24-.146.502-.146.79 0 .288.049.552.146.791.098.24.23.445.4.616.169.172.371.305.604.4.232.095.484.143.756.143.271 0 .522-.048.755-.143a1.814 1.814 0 0 0 1.01-1.016c.097-.239.146-.503.146-.79 0-.289-.049-.55-.146-.79a1.814 1.814 0 0 0-1.01-1.016 1.978 1.978 0 0 0-.755-.144zm0-1.252c.47 0 .905.082 1.304.245a3.082 3.082 0 0 1 1.725 1.686c.165.39.248.814.248 1.27 0 .458-.083.881-.248 1.27a3.076 3.076 0 0 1-1.725 1.687 3.417 3.417 0 0 1-1.304.245c-.471 0-.906-.082-1.306-.245a3.161 3.161 0 0 1-1.035-.673 3.1 3.1 0 0 1-.683-1.014 3.217 3.217 0 0 1-.247-1.27c0-.456.082-.88.247-1.27.166-.39.393-.727.683-1.013.29-.285.635-.51 1.035-.673a3.43 3.43 0 0 1 1.306-.245zm-7.844-2.813c.393 0 .775.042 1.143.126a4.57 4.57 0 0 1 1.029.37c.317.16.606.356.864.587.258.231.474.49.647.778l-1.199.8a2.917 2.917 0 0 0-2.484-1.283c-.454 0-.873.078-1.258.235a2.922 2.922 0 0 0-1.654 1.683 3.513 3.513 0 0 0-.239 1.315c0 .48.08.917.239 1.315a2.922 2.922 0 0 0 1.654 1.683c.385.157.804.235 1.258.235.528 0 1.004-.112 1.425-.337a2.96 2.96 0 0 0 1.052-.94l1.169.858a3.851 3.851 0 0 1-.67.75 4.19 4.19 0 0 1-.852.565 4.455 4.455 0 0 1-1.003.358 4.95 4.95 0 0 1-1.121.124 4.969 4.969 0 0 1-1.88-.346 4.37 4.37 0 0 1-1.474-.962 4.356 4.356 0 0 1-.959-1.46 4.862 4.862 0 0 1-.343-1.843c0-.665.115-1.279.343-1.842.229-.563.548-1.05.959-1.46.411-.41.902-.732 1.474-.963a4.969 4.969 0 0 1 1.88-.346zm-8.632 3.995c-.237 0-.448.035-.632.107a1.388 1.388 0 0 0-.477.31 1.637 1.637 0 0 0-.327.475 2.267 2.267 0 0 0-.177.607h3.157c-.073-.474-.242-.843-.509-1.105-.267-.263-.611-.394-1.035-.394zm.026-1.182c.423 0 .812.078 1.165.232.354.155.656.373.908.655.252.282.449.618.591 1.01.141.391.213.824.213 1.298a5.346 5.346 0 0 1-.026.495h-4.497c.042.276.121.511.235.705.115.196.252.355.413.48.161.125.341.217.54.276.199.06.407.09.622.09.305 0 .611-.056.918-.169.307-.112.587-.27.842-.473l.66.946a3.287 3.287 0 0 1-1.185.667 4.458 4.458 0 0 1-1.317.191c-.458 0-.877-.077-1.258-.229a2.834 2.834 0 0 1-.984-.647 2.919 2.919 0 0 1-.642-1.01 3.608 3.608 0 0 1-.229-1.315c0-.475.075-.909.223-1.302.148-.394.355-.73.622-1.013.267-.282.586-.5.956-.655.371-.154.78-.232 1.23-.232zm-4.46 0c.204 0 .387.014.55.042.163.027.321.071.473.13l-.317 1.315a1.86 1.86 0 0 0-.489-.166 2.63 2.63 0 0 0-.521-.057 1.55 1.55 0 0 0-.585.108c-.178.072-.33.178-.457.318s-.227.311-.299.514a2.069 2.069 0 0 0-.107.692v3.348h-1.328v-6.085h1.315v.686c.203-.292.455-.506.755-.64a2.427 2.427 0 0 1 1.01-.205zm-4.846 3.665c0 .483-.08.898-.241 1.244a2.418 2.418 0 0 1-.635.852 2.534 2.534 0 0 1-.902.486 3.531 3.531 0 0 1-2.083 0 2.577 2.577 0 0 1-.906-.486 2.37 2.37 0 0 1-.635-.852c-.158-.346-.238-.76-.238-1.244v-3.506h1.334v3.385c0 .292.038.542.114.747.077.205.181.371.315.5a1.2 1.2 0 0 0 .473.274c.182.058.377.086.584.086.208 0 .402-.028.585-.086a1.2 1.2 0 0 0 .473-.275c.133-.128.238-.294.314-.499a2.16 2.16 0 0 0 .115-.747v-3.385h1.333v3.506zm-9.082-3.665c.458 0 .883.082 1.277.245.394.163.726.405.997.727l-.851.908a2.579 2.579 0 0 0-.673-.467 1.853 1.853 0 0 0-.788-.16c-.254 0-.491.047-.711.142a1.684 1.684 0 0 0-.572.4 1.835 1.835 0 0 0-.378.616c-.091.24-.136.502-.136.79 0 .288.045.552.136.791.091.24.217.445.378.616.161.172.351.305.572.4.22.095.457.143.711.143.292 0 .565-.06.819-.18.255-.12.479-.273.673-.455l.82.915a2.693 2.693 0 0 1-1.003.727 3.26 3.26 0 0 1-1.271.245c-.483 0-.921-.082-1.315-.245a3.006 3.006 0 0 1-1.009-.673 2.967 2.967 0 0 1-.648-1.014 3.438 3.438 0 0 1-.229-1.27c0-.456.076-.88.229-1.27.152-.39.368-.727.648-1.013.279-.285.615-.51 1.009-.673a3.408 3.408 0 0 1 1.315-.245zm-7.056 1.182c-.237 0-.448.035-.632.107a1.375 1.375 0 0 0-.476.31 1.62 1.62 0 0 0-.328.475 2.304 2.304 0 0 0-.177.607h3.156c-.072-.474-.241-.843-.508-1.105-.267-.263-.612-.394-1.035-.394zm.026-1.182c.423 0 .811.078 1.165.232.353.155.656.373.908.655.252.282.449.618.591 1.01.141.391.213.824.213 1.298a5.346 5.346 0 0 1-.026.495H9.508c.042.276.121.511.235.705.114.196.252.355.413.48.161.125.341.217.54.276.199.06.406.09.622.09.305 0 .611-.056.918-.169.307-.112.588-.27.842-.473l.66.946a3.283 3.283 0 0 1-1.184.667 4.47 4.47 0 0 1-1.318.191c-.458 0-.877-.077-1.258-.229a2.843 2.843 0 0 1-.984-.647 2.902 2.902 0 0 1-.641-1.01 3.608 3.608 0 0 1-.23-1.315c0-.475.075-.909.223-1.302.148-.394.355-.73.622-1.013.267-.282.585-.5.956-.655.371-.154.78-.232 1.23-.232zm-4.847-.679a5.24 5.24 0 0 0-1.194-.563 4.24 4.24 0 0 0-1.302-.199c-.296 0-.567.03-.813.092-.245.061-.456.15-.632.267a1.305 1.305 0 0 0-.409.42 1.044 1.044 0 0 0-.146.548c0 .186.042.345.127.476.084.132.206.243.365.334.158.091.352.166.581.225.229.06.487.11.775.153l.616.082c.36.051.711.13 1.054.236.343.105.649.253.918.444.269.19.485.43.647.718.164.287.246.637.246 1.048 0 .453-.096.853-.286 1.2-.191.347-.45.64-.776.876a3.572 3.572 0 0 1-1.133.541c-.43.122-.886.184-1.369.184a6.413 6.413 0 0 1-1.896-.302 5.849 5.849 0 0 1-.905-.372 3.835 3.835 0 0 1-.775-.52l.781-1.144c.153.14.336.27.55.388.214.12.443.222.689.311a4.707 4.707 0 0 0 1.55.28c.292 0 .564-.03.816-.089.252-.06.471-.147.657-.26a1.38 1.38 0 0 0 .441-.417.964.964 0 0 0 .162-.549c0-.348-.17-.612-.511-.794-.341-.182-.837-.318-1.489-.407l-.692-.095a5.42 5.42 0 0 1-.969-.229 2.834 2.834 0 0 1-.845-.447 2.163 2.163 0 0 1-.597-.724c-.151-.29-.226-.642-.226-1.057 0-.445.093-.84.277-1.185.184-.345.435-.635.753-.87a3.473 3.473 0 0 1 1.114-.537 4.885 4.885 0 0 1 1.363-.185c.648 0 1.233.087 1.755.258.523.171 1.01.405 1.459.701l-.731 1.163z" fill="#E3E3E3"/></g><mask id="b" maskUnits="userSpaceOnUse" x="0" y="0" width="71" height="10"><path fill-rule="evenodd" clip-rule="evenodd" d="M.742 0h70.136v9.652H.742V0z" fill="#fff"/></mask><g mask="url(#b)"><path fill-rule="evenodd" clip-rule="evenodd" d="M67.683 4.309c-.3 0-.566.054-.801.161a1.794 1.794 0 0 0-.596.435 1.926 1.926 0 0 0-.375.642 2.31 2.31 0 0 0-.132.785c0 .276.044.538.132.783.087.246.213.461.375.643.163.182.36.327.596.435.235.107.502.161.8.161.286 0 .545-.052.778-.155.233-.103.433-.245.6-.425.167-.18.296-.393.388-.639.093-.246.139-.514.139-.803 0-.291-.046-.559-.14-.805a1.815 1.815 0 0 0-.988-1.063 1.901 1.901 0 0 0-.776-.155zm-.165-1.298c.452 0 .84.085 1.166.254.325.169.597.394.817.675V0h1.377v9.487H69.5v-.758a2.44 2.44 0 0 1-.817.672c-.325.168-.714.251-1.166.251a3.087 3.087 0 0 1-2.24-.936 3.205 3.205 0 0 1-.672-1.05 3.573 3.573 0 0 1-.244-1.334c0-.484.082-.929.244-1.335a3.084 3.084 0 0 1 2.912-1.986zm-4.52 0c.212 0 .402.014.57.043.169.029.333.073.49.135l-.33 1.364a1.915 1.915 0 0 0-.505-.171 2.682 2.682 0 0 0-.541-.059c-.22 0-.421.036-.605.111a1.28 1.28 0 0 0-.475.33 1.546 1.546 0 0 0-.31.534c-.075.21-.112.45-.112.717v3.472h-1.376V3.176h1.363v.711a1.9 1.9 0 0 1 .784-.665 2.53 2.53 0 0 1 1.047-.211zm-8.42 1.298c-.298 0-.565.054-.8.161a1.774 1.774 0 0 0-.595.435 1.912 1.912 0 0 0-.376.642 2.31 2.31 0 0 0-.132.785c0 .276.044.538.132.783.088.246.213.461.376.643.162.182.36.327.596.435.234.107.5.161.8.161.285 0 .544-.052.778-.155a1.81 1.81 0 0 0 .599-.425 1.93 1.93 0 0 0 .389-.639c.093-.246.138-.514.138-.803 0-.291-.045-.559-.138-.805a1.93 1.93 0 0 0-.39-.639 1.81 1.81 0 0 0-.598-.424 1.91 1.91 0 0 0-.778-.155zm3.196 5.178h-1.377v-.758a2.426 2.426 0 0 1-.816.672c-.326.168-.714.251-1.167.251-.444 0-.856-.083-1.238-.247a3.098 3.098 0 0 1-1.673-1.739 3.553 3.553 0 0 1-.244-1.334c0-.484.08-.929.244-1.335.162-.406.386-.757.67-1.051a3.095 3.095 0 0 1 2.24-.935c.454 0 .842.085 1.168.254.325.169.597.394.816.674v-.763h1.377v6.311zm-9.698-6.476c.475 0 .916.085 1.325.254.408.169.753.42 1.034.754l-.883.942a2.639 2.639 0 0 0-.698-.484 1.922 1.922 0 0 0-.817-.168 1.84 1.84 0 0 0-.738.148 1.77 1.77 0 0 0-.593.415 1.927 1.927 0 0 0-.391.639 2.275 2.275 0 0 0-.142.821c0 .298.047.571.142.82.094.247.225.46.39.639a1.823 1.823 0 0 0 1.331.563c.304 0 .587-.063.85-.188.264-.125.497-.282.699-.471l.85.949a2.78 2.78 0 0 1-1.04.754 3.39 3.39 0 0 1-1.318.254c-.501 0-.956-.085-1.364-.254a3.12 3.12 0 0 1-1.048-.698 3.116 3.116 0 0 1-.671-1.051 3.585 3.585 0 0 1-.238-1.317c0-.475.08-.914.238-1.319.158-.403.382-.753.67-1.05a3.1 3.1 0 0 1 1.049-.698 3.532 3.532 0 0 1 1.363-.254zm-4.71 0c.21 0 .4.014.57.043.169.029.333.073.49.135l-.33 1.364a1.922 1.922 0 0 0-.506-.171 2.673 2.673 0 0 0-.54-.059 1.6 1.6 0 0 0-.607.111 1.292 1.292 0 0 0-.474.33 1.529 1.529 0 0 0-.31.534c-.074.21-.111.45-.111.717v3.472H40.17V3.176h1.364v.711a1.9 1.9 0 0 1 .784-.665c.31-.14.66-.211 1.047-.211zm-7.78 1.225c-.246 0-.465.038-.656.112a1.415 1.415 0 0 0-.494.32 1.693 1.693 0 0 0-.34.494 2.385 2.385 0 0 0-.184.629h3.275c-.075-.492-.25-.874-.527-1.146-.277-.272-.635-.409-1.074-.409zm.026-1.225c.439 0 .843.08 1.209.241.367.16.68.386.942.678.262.292.465.642.613 1.047.147.407.22.856.22 1.348a4.454 4.454 0 0 1-.026.514h-4.664c.044.285.125.529.244.731a1.672 1.672 0 0 0 .988.784c.206.062.42.092.645.092.317 0 .634-.058.952-.174.319-.117.61-.28.873-.491l.686.981c-.387.33-.796.561-1.23.692a4.664 4.664 0 0 1-1.366.198c-.474 0-.91-.079-1.305-.237a2.958 2.958 0 0 1-1.021-.672 3.043 3.043 0 0 1-.665-1.048 3.75 3.75 0 0 1-.237-1.363 3.8 3.8 0 0 1 .23-1.351 3.09 3.09 0 0 1 .646-1.05c.277-.293.607-.519.99-.679a3.27 3.27 0 0 1 1.276-.241zm-4.236 1.416h-2.418v2.748c0 .21.027.39.079.54.053.149.125.271.214.366.09.094.196.163.316.207.12.044.252.066.393.066.215 0 .433-.041.655-.125.222-.084.427-.185.616-.303l.547 1.1a4.34 4.34 0 0 1-.86.441 2.967 2.967 0 0 1-1.077.185c-.716 0-1.273-.198-1.67-.596-.398-.398-.596-1.016-.596-1.855V4.427h-1.258V3.176h1.258V1.265h1.383v1.911h2.418v1.251zm-6.535.33a3.858 3.858 0 0 0-.824-.356 4.904 4.904 0 0 0-.543-.131 3.234 3.234 0 0 0-.583-.053c-.378 0-.671.069-.88.207-.208.138-.313.32-.313.544 0 .11.028.202.082.276a.64.64 0 0 0 .22.185 1.3 1.3 0 0 0 .33.115c.128.029.264.054.409.076l.652.099c.69.101 1.228.302 1.614.603.387.3.58.721.58 1.261a1.802 1.802 0 0 1-.754 1.486 2.74 2.74 0 0 1-.903.425 4.473 4.473 0 0 1-1.215.151c-.163 0-.352-.009-.567-.029a4.863 4.863 0 0 1-1.423-.366 3.376 3.376 0 0 1-.718-.415l.639-1.034a2.78 2.78 0 0 0 .827.451c.169.059.356.107.56.141.204.035.436.053.695.053.475 0 .833-.069 1.074-.207.242-.138.362-.326.362-.564 0-.179-.088-.328-.263-.444-.176-.116-.453-.201-.83-.253l-.66-.087c-.702-.096-1.234-.301-1.596-.615-.363-.314-.544-.726-.544-1.236 0-.312.06-.593.18-.843.122-.25.295-.462.522-.636.226-.173.499-.307.82-.401.32-.095.683-.142 1.087-.142.496 0 .963.058 1.403.175.439.116.823.279 1.153.49l-.593 1.074zm-9.52-.448c-.298 0-.565.054-.8.161a1.784 1.784 0 0 0-.596.435 1.929 1.929 0 0 0-.376.642 2.31 2.31 0 0 0-.132.785c0 .276.044.538.132.783.088.246.213.461.376.643.162.182.36.327.596.435.235.107.502.161.8.161.286 0 .545-.052.777-.155.234-.103.433-.245.6-.425.167-.18.297-.393.389-.639.092-.246.138-.514.138-.803a2.28 2.28 0 0 0-.138-.805 1.914 1.914 0 0 0-.39-.639 1.805 1.805 0 0 0-.6-.424 1.895 1.895 0 0 0-.776-.155zm3.195 5.178H17.14v-.758a2.44 2.44 0 0 1-.817.672c-.325.168-.714.251-1.166.251-.444 0-.857-.083-1.24-.247a3.098 3.098 0 0 1-1.672-1.739A3.553 3.553 0 0 1 12 6.332c0-.484.08-.929.244-1.335.162-.406.386-.757.67-1.051a3.09 3.09 0 0 1 2.241-.935c.453 0 .842.085 1.167.254.325.169.597.394.817.674v-.763h1.376v6.311zm-7.84 0H9.189V1.898L6.494 8.584H4.926L2.23 1.97v7.517H.74V.264h2.29l2.68 6.588L8.392.264h2.286v9.223z" fill="#E3E3E3"/></g></svg>