<svg width="56" height="36" fill="none" xmlns="http://www.w3.org/2000/svg"><rect width="42.667" height="26" rx="4" fill="#6496DC"/><path fill="#fff" d="M2.667 12h36.667v4H2.667z"/><path fill="#000" d="M0 3.333h42.667v5.333H0z"/><g filter="url(#filter0_d)"><path fill-rule="evenodd" clip-rule="evenodd" d="M38.667 30C46.03 30 52 24.03 52 16.667c0-7.364-5.97-13.334-13.333-13.334-7.364 0-13.334 5.97-13.334 13.334S31.303 30 38.667 30z" fill="#6496DC"/><mask id="a" maskUnits="userSpaceOnUse" x="25" y="3" width="27" height="28"><path fill-rule="evenodd" clip-rule="evenodd" d="M38.667 30C46.03 30 52 24.03 52 16.667c0-7.364-5.97-13.334-13.333-13.334-7.364 0-13.334 5.97-13.334 13.334S31.303 30 38.667 30z" fill="#fff"/></mask><g mask="url(#a)"><path fill="#fff" d="M25.333 12H46v9.333H25.333z"/><path fill="#000" d="M0 3.333h50v5.333H0z"/><path fill-rule="evenodd" clip-rule="evenodd" d="M37.167 18.427h2.02v.907h-3.58v-.68l1.36-1.187c.953-.84 1.153-1.027 1.153-1.367 0-.313-.22-.606-.713-.606-.474 0-.72.266-.794.74h-.96c.067-1.014.794-1.647 1.794-1.647 1.026 0 1.64.673 1.64 1.467 0 .703-.471 1.114-1.276 1.816l-.058.05-.573.5-.013.007zm-3.414-3.76h.434v4.667h-.954v-3.56l-1.046.44v-.94l1.566-.607zm10.187 3.32c0-.527-.253-.92-.687-1.1.347-.18.547-.533.547-.94 0-.793-.687-1.36-1.66-1.36-.913 0-1.64.493-1.74 1.48h.96c.093-.433.36-.58.753-.58.507 0 .727.253.727.587 0 .346-.28.466-.707.466h-.5v.834h.62c.547 0 .727.2.727.52 0 .38-.24.62-.787.62-.473 0-.793-.174-.873-.634h-.967c.08 1.034.874 1.534 1.847 1.534 1.04 0 1.74-.52 1.74-1.427z" fill="#000"/></g></g><defs><filter id="filter0_d" x="21.333" y="1.333" width="34.667" height="34.667" filterUnits="userSpaceOnUse" color-interpolation-filters="sRGB"><feFlood flood-opacity="0" result="BackgroundImageFix"/><feColorMatrix in="SourceAlpha" values="0 0 0 0 0 0 0 0 0 0 0 0 0 0 0 0 0 0 127 0"/><feOffset dy="2"/><feGaussianBlur stdDeviation="2"/><feColorMatrix values="0 0 0 0 0 0 0 0 0 0 0 0 0 0 0 0 0 0 0.5 0"/><feBlend in2="BackgroundImageFix" result="effect1_dropShadow"/><feBlend in="SourceGraphic" in2="effect1_dropShadow" result="shape"/></filter></defs></svg>