<svg width="123" height="120" fill="none" xmlns="http://www.w3.org/2000/svg"><path d="M1.046 119.747a1.046 1.046 0 0 1-.945-1.496l34.461-72.258a1.046 1.046 0 0 1 1.886.9l-33.19 69.595L74.35 82.585a1.045 1.045 0 0 1 .9 1.886L1.496 119.645a1.054 1.054 0 0 1-.45.102z" fill="#363663"/><path fill-rule="evenodd" clip-rule="evenodd" d="M47.743 72.005C55.849 80.111 65.076 85.35 71.25 85.35c2.126 0 3.816-.61 5.019-1.813 2.395-2.393 2.415-6.757.059-12.284-2.229-5.23-6.345-10.998-11.59-16.242-8.107-8.106-17.333-13.345-23.507-13.345-2.128 0-3.817.61-5.02 1.814-4.765 4.764.3 17.294 11.53 28.526zM37.689 44.956c.797-.797 1.989-1.202 3.542-1.202 5.561 0 14.414 5.117 22.029 12.732 5.06 5.06 9.017 10.594 11.145 15.584 1.97 4.622 2.11 8.262.386 9.988-.798.798-1.989 1.201-3.541 1.201-5.562 0-14.415-5.116-22.03-12.732-11.096-11.096-14.92-22.18-11.531-25.57z" fill="#363663"/><path d="M13.087 107.171a1.05 1.05 0 0 1-.97-.651 70.458 70.458 0 0 1-2.506-7.289 1.045 1.045 0 1 1 2.01-.57 67.719 67.719 0 0 0 2.433 7.072 1.045 1.045 0 0 1-.967 1.438zm14.947-.407c-.343 0-.68-.169-.88-.48-2.64-4.105-4.848-8.786-6.564-13.912a1.044 1.044 0 1 1 1.98-.664c1.662 4.963 3.796 9.486 6.342 13.446a1.045 1.045 0 0 1-.878 1.61zM20.059 87.88c-.468 0-.894-.317-1.013-.791-.828-3.306-1.103-5.427-1.114-5.515a1.045 1.045 0 0 1 .905-1.168 1.057 1.057 0 0 1 1.17.904c.001.022.272 2.097 1.067 5.271a1.045 1.045 0 0 1-1.015 1.298zm21.933 12.34c-.257 0-.514-.095-.717-.285a44.11 44.11 0 0 1-4.303-4.71 1.044 1.044 0 1 1 1.64-1.297 41.79 41.79 0 0 0 4.098 4.486 1.047 1.047 0 0 1-.718 1.806zm-6.485-7.748c-.338 0-.669-.164-.87-.466-2.854-4.278-5.225-9.206-7.044-14.643a1.044 1.044 0 1 1 1.982-.663c1.76 5.261 4.048 10.02 6.8 14.148a1.045 1.045 0 0 1-.868 1.624zm-8.445-19.6c-.468 0-.893-.317-1.012-.791-.83-3.306-1.103-5.427-1.114-5.515a1.046 1.046 0 0 1 .904-1.168 1.056 1.056 0 0 1 1.17.905c.002.02.271 2.097 1.068 5.27a1.044 1.044 0 0 1-1.016 1.299z" fill="#363663"/><path fill-rule="evenodd" clip-rule="evenodd" d="M72.319 41.334c.194.183.45.285.718.285h.029c.277-.007.54-.125.73-.326l5.724-6.052a1.047 1.047 0 0 0-.042-1.478l-6.051-5.724a1.09 1.09 0 0 0-.747-.286c-.277.008-.54.125-.73.326l-5.724 6.053a1.047 1.047 0 0 0 .041 1.478l6.052 5.724zm.676-2.237l-4.533-4.287 4.289-4.534 4.532 4.287-4.288 4.534zm27.553-6.451a1.044 1.044 0 0 0 1.477-.04l5.724-6.051a1.047 1.047 0 0 0-.041-1.478l-6.051-5.724a1.046 1.046 0 0 0-1.478.04l-5.724 6.051a1.047 1.047 0 0 0 .042 1.478l6.051 5.724zm.675-2.236l-4.532-4.287 4.288-4.533 4.533 4.287-4.289 4.533zM85.76 15.728a3.253 3.253 0 0 0 3.248 3.249 3.252 3.252 0 0 0 3.248-3.25 3.252 3.252 0 0 0-3.248-3.248 3.252 3.252 0 0 0-3.248 3.249zm2.09 0a1.159 1.159 0 1 1 2.314.001 1.159 1.159 0 0 1-2.314-.001zm1.912 27.014a3.252 3.252 0 0 0 3.249 3.249 3.254 3.254 0 0 0 3.249-3.25 3.253 3.253 0 0 0-3.25-3.248 3.252 3.252 0 0 0-3.248 3.249zm2.09 0a1.16 1.16 0 1 1 2.319.001 1.16 1.16 0 0 1-2.319-.001zm23.612 27.703a3.253 3.253 0 0 0 3.249 3.248 3.254 3.254 0 0 0 3.249-3.248 3.253 3.253 0 0 0-3.249-3.25 3.253 3.253 0 0 0-3.249 3.25zm2.09 0a1.16 1.16 0 1 1 1.159 1.159 1.16 1.16 0 0 1-1.159-1.158zM84.5 67.438a1.043 1.043 0 0 0 1.448-.296c.066-.1 5.436-8.09 13.834-11.319.966 4.48 2.778 6.97 5.403 7.41 2.016.339 4.172-.222 5.628-1.457 1.277-1.084 1.95-2.6 1.946-4.383-.004-1.32-.443-2.42-1.308-3.275-1.752-1.73-4.65-1.725-4.746-1.716-1.838 0-3.59.246-5.245.673.014-1.379.37-8.233 5.892-12.585a1.045 1.045 0 1 0-1.293-1.64c-6.96 5.484-6.7 14.186-6.677 14.653l.03.207c-9.186 3.32-14.913 11.834-15.208 12.28a1.044 1.044 0 0 0 .296 1.448zm21.03-6.267c-1.734-.292-3.021-2.376-3.759-6.002a18.7 18.7 0 0 1 4.946-.677l.043.003c.308.013 2.192.093 3.223 1.11.461.456.686 1.04.687 1.792.002 1.165-.404 2.102-1.209 2.785-.984.836-2.526 1.224-3.931.989zm8.408 32.905c-1.383 0-2.628-.345-3.544-.79-1.329-.648-2.374-1.428-3.132-2.334-2.547-.15-4.641-1.166-5.987-1.82-2.388-1.157-4.211-2.441-5.456-3.836a8.239 8.239 0 0 1-3.46-.52c-4.2-1.582-6.163-6.103-6.245-6.295a1.044 1.044 0 0 1 .552-1.37 1.047 1.047 0 0 1 1.372.55c.016.039 1.711 3.906 5.07 5.164a6.16 6.16 0 0 0 1.296.331 6.646 6.646 0 0 1-.375-1.07c-.615-2.391.417-4.182.654-4.551.797-1.463 1.843-2.306 3.112-2.507 2.087-.328 3.823 1.273 4.014 1.456.031.029.058.06.085.092.953 1.166 1.32 2.396 1.091 3.651-.434 2.38-2.938 3.857-3.043 3.918-.552.265-1.096.485-1.631.66.998.858 2.297 1.68 3.877 2.447 1.18.573 2.464 1.138 3.854 1.428-.772-2.68.587-5.036.646-5.135.779-1.454 1.834-2.313 3.114-2.515 2.091-.32 3.824 1.273 4.015 1.458.03.03.058.06.085.091.952 1.167 1.32 2.396 1.091 3.652-.434 2.38-2.937 3.855-3.044 3.916a1.207 1.207 0 0 1-.139.068 10.6 10.6 0 0 1-1.678.513c.351.24.743.466 1.176.677.901.435 5.561 2.305 8.913-3.868a1.044 1.044 0 1 1 1.836.995c-2.32 4.277-5.472 5.544-8.119 5.544zm-3.576-10.998a1.48 1.48 0 0 0-.242.02c-.598.097-1.139.592-1.611 1.471l-.001.001c-.04.072-.995 1.786-.439 3.597.074.242.172.476.293.703a8.422 8.422 0 0 0 2.598-.566c.532-.331 1.771-1.313 1.975-2.452.111-.616-.089-1.237-.61-1.894-.322-.291-1.159-.88-1.963-.88zm-12.249-5.985a1.5 1.5 0 0 1 .242-.02c.804 0 1.641.59 1.964.88.522.658.721 1.278.611 1.895-.212 1.184-1.545 2.2-1.965 2.452a9.648 9.648 0 0 1-2.225.77 5.037 5.037 0 0 1-.675-1.463c-.453-1.69.341-2.89.37-2.932.023-.036.046-.072.067-.11.472-.88 1.013-1.375 1.611-1.472zM46.739 3.72a3.253 3.253 0 0 0 3.249 3.25 3.252 3.252 0 0 0 3.247-3.25A3.252 3.252 0 0 0 49.988.473a3.253 3.253 0 0 0-3.249 3.249zm2.09 0a1.16 1.16 0 1 1 2.314.001 1.16 1.16 0 0 1-2.314 0zm4.167 34.214a1.043 1.043 0 0 0 1.45.296c.445-.295 8.968-6.025 12.282-15.21l.115.017c.063.01.125.019.188.027.374.014 9.069.281 14.554-6.68a1.034 1.034 0 0 0-.175-1.46c-.453-.355-1.11-.26-1.467.192-4.42 5.61-11.483 5.921-12.585 5.933a20.39 20.39 0 0 0 .673-5.173c.001-.121.012-2.87-1.716-4.621-.854-.865-1.955-1.034-3.273-1.034h-.016c-1.777 0-3.288.4-4.369 1.673-1.235 1.457-1.792 3.34-1.455 5.354.437 2.614 2.906 4.422 7.41 5.396-3.228 8.388-11.22 13.776-11.321 13.843a1.044 1.044 0 0 0-.295 1.447zm7.254-24.641c.68-.802 1.614-.89 2.775-.89h.01c.094 0 .186-.002.275-.003.619-.008 1.115-.014 1.51.384 1.117 1.124 1.119 2.954 1.119 2.984 0 1.721-.249 3.41-.675 4.967-3.65-.744-5.713-1.947-6.002-3.672-.235-1.403.152-2.786.988-3.77zM42.36 36.401c-.136 0-.275-.026-.409-.084-.19-.081-4.714-2.045-6.296-6.244a8.307 8.307 0 0 1-.521-3.461c-1.395-1.245-2.677-3.067-3.835-5.453l-.003-.006c-.652-1.346-1.666-3.438-1.815-5.98-.906-.758-1.686-1.804-2.333-3.13C25.847 9.374 25.383 3.913 31.9.38a1.044 1.044 0 0 1 .996 1.836c-6.182 3.352-4.307 8.01-3.868 8.911.21.433.436.826.675 1.177.12-.546.288-1.107.514-1.678a.896.896 0 0 1 .068-.138c.062-.107 1.536-2.61 3.917-3.045 1.258-.229 2.485.139 3.651 1.091a.959.959 0 0 1 .092.085c.183.191 1.786 1.926 1.456 4.015-.201 1.28-1.059 2.334-2.549 3.134-.063.038-2.42 1.396-5.1.625.29 1.39.855 2.674 1.428 3.854.765 1.577 1.585 2.875 2.442 3.87.167-.512.377-1.03.628-1.552.1-.179 1.574-2.681 3.954-3.115 1.257-.228 2.485.137 3.652 1.09a.968.968 0 0 1 .091.086c.184.19 1.786 1.925 1.457 4.014-.2 1.269-1.044 2.315-2.507 3.11-.37.24-2.158 1.27-4.55.655a6.694 6.694 0 0 1-1.073-.375c.064.446.176.881.336 1.307 1.271 3.372 5.12 5.042 5.16 5.058a1.046 1.046 0 0 1-.409 2.007zm-5.002-10.71a5.04 5.04 0 0 0 1.51.69c1.677.43 2.878-.373 2.89-.383a1.35 1.35 0 0 1 .11-.068c.88-.47 1.375-1.013 1.472-1.61.141-.87-.538-1.845-.86-2.206-.657-.522-1.28-.721-1.893-.61-1.186.213-2.2 1.544-2.491 2.039a9.225 9.225 0 0 0-.738 2.148zm-5.072-11.32a3.832 3.832 0 0 1-.722-.3 8.387 8.387 0 0 1 .567-2.597c.333-.536 1.315-1.773 2.453-1.975.613-.112 1.236.088 1.893.61.322.36 1.001 1.336.86 2.205-.098.598-.593 1.14-1.508 1.631-.017.01-1.73.971-3.544.425z" fill="#363663"/></svg>